<?xml version="1.0" encoding="utf-8" standalone="no"?>
<!DOCTYPE svg PUBLIC "-//W3C//DTD SVG 1.1//EN"
  "http://www.w3.org/Graphics/SVG/1.1/DTD/svg11.dtd">
<svg xmlns:xlink="http://www.w3.org/1999/xlink" width="769.244886pt" height="212.51625pt" viewBox="0 0 769.244886 212.51625" xmlns="http://www.w3.org/2000/svg" version="1.1">
 <metadata>
  <rdf:RDF xmlns:dc="http://purl.org/dc/elements/1.1/" xmlns:cc="http://creativecommons.org/ns#" xmlns:rdf="http://www.w3.org/1999/02/22-rdf-syntax-ns#">
   <cc:Work>
    <dc:type rdf:resource="http://purl.org/dc/dcmitype/StillImage"/>
    <dc:date>2023-05-20T22:21:18.654192</dc:date>
    <dc:format>image/svg+xml</dc:format>
    <dc:creator>
     <cc:Agent>
      <dc:title>Matplotlib v3.7.1, https://matplotlib.org/</dc:title>
     </cc:Agent>
    </dc:creator>
   </cc:Work>
  </rdf:RDF>
 </metadata>
 <defs>
  <style type="text/css">*{stroke-linejoin: round; stroke-linecap: butt}</style>
 </defs>
 <g id="figure_1">
  <g id="patch_1">
   <path d="M 0 212.51625 
L 769.244886 212.51625 
L 769.244886 0 
L 0 0 
z
" style="fill: #ffffff"/>
  </g>
  <g id="axes_1">
   <g id="patch_2">
    <path d="M 43.209375 188.638125 
L 712.809375 188.638125 
L 712.809375 22.318125 
L 43.209375 22.318125 
z
" style="fill: #ffffff"/>
   </g>
   <g id="PolyCollection_1">
    <path d="M 73.645739 188.638125 
L 73.645739 188.638125 
L 77.64543 188.638125 
L 81.5161 188.638125 
L 85.515791 188.638125 
L 89.515483 188.638125 
L 93.128108 188.638125 
L 97.1278 188.638125 
L 100.998469 188.638125 
L 104.998161 188.638125 
L 108.86883 188.638125 
L 112.868522 188.638125 
L 116.868213 188.638125 
L 120.738883 188.638125 
L 124.738575 188.638125 
L 128.609244 188.638125 
L 132.608936 188.638125 
L 136.608627 188.638125 
L 140.221252 188.638125 
L 144.220944 188.638125 
L 148.091613 188.638125 
L 152.091305 188.638125 
L 155.961974 188.638125 
L 159.961666 188.638125 
L 163.961358 188.638125 
L 167.832027 188.638125 
L 171.831719 188.638125 
L 175.702388 188.638125 
L 179.70208 188.638125 
L 183.701772 188.638125 
L 187.314396 188.638125 
L 191.314088 188.638125 
L 195.184757 188.638125 
L 199.184449 188.638125 
L 203.055119 188.638125 
L 207.05481 188.638125 
L 211.054502 188.638125 
L 214.925171 188.638125 
L 218.924863 188.638125 
L 222.795532 188.638125 
L 226.795224 188.638125 
L 230.794916 188.638125 
L 234.536563 188.638125 
L 238.536255 188.638125 
L 242.406924 188.638125 
L 246.406616 188.638125 
L 250.277285 188.638125 
L 254.276977 188.638125 
L 258.276669 188.638125 
L 262.147338 188.638125 
L 266.14703 188.638125 
L 270.017699 188.638125 
L 274.017391 188.638125 
L 278.017082 188.638125 
L 281.629707 188.638125 
L 285.629399 188.638125 
L 289.500068 188.638125 
L 293.49976 188.638125 
L 297.370429 188.638125 
L 301.370121 188.638125 
L 305.369813 188.638125 
L 309.240482 188.638125 
L 313.240174 188.638125 
L 317.110843 188.638125 
L 321.110535 188.638125 
L 325.110227 188.638125 
L 328.722851 188.638125 
L 332.722543 188.638125 
L 336.593213 188.638125 
L 340.592904 188.638125 
L 344.463574 188.638125 
L 348.463265 188.638125 
L 352.462957 188.638125 
L 356.333626 188.638125 
L 360.333318 188.638125 
L 364.203988 188.638125 
L 368.203679 188.638125 
L 372.203371 188.638125 
L 375.815996 188.638125 
L 379.815687 188.638125 
L 383.686357 188.638125 
L 387.686048 188.638125 
L 391.556718 188.638125 
L 395.55641 188.638125 
L 399.556101 188.638125 
L 403.426771 188.638125 
L 407.426462 188.638125 
L 411.297132 188.638125 
L 415.296823 188.638125 
L 419.296515 188.638125 
L 423.038162 188.638125 
L 427.037854 188.638125 
L 430.908523 188.638125 
L 434.908215 188.638125 
L 438.778884 188.638125 
L 442.778576 188.638125 
L 446.778268 188.638125 
L 450.648937 188.638125 
L 454.648629 188.638125 
L 458.519298 188.638125 
L 462.51899 188.638125 
L 466.518682 188.638125 
L 470.131306 188.638125 
L 474.130998 188.638125 
L 478.001668 188.638125 
L 482.001359 188.638125 
L 485.872029 188.638125 
L 489.87172 188.638125 
L 493.871412 188.638125 
L 497.742081 188.638125 
L 501.741773 188.638125 
L 505.612443 188.638125 
L 509.612134 188.638125 
L 513.611826 188.638125 
L 517.224451 188.638125 
L 521.224142 188.638125 
L 525.094812 188.638125 
L 529.094504 188.638125 
L 532.965173 188.638125 
L 536.964865 188.638125 
L 540.964556 188.638125 
L 544.835226 188.638125 
L 548.834917 188.638125 
L 552.705587 188.638125 
L 556.705279 188.638125 
L 560.70497 188.638125 
L 564.317595 188.638125 
L 568.317287 188.638125 
L 572.187956 188.638125 
L 576.187648 188.638125 
L 580.058317 188.638125 
L 584.058009 188.638125 
L 588.057701 188.638125 
L 591.92837 188.638125 
L 595.928062 188.638125 
L 599.798731 188.638125 
L 603.798423 188.638125 
L 607.798114 188.638125 
L 611.539762 188.638125 
L 615.539453 188.638125 
L 619.410123 188.638125 
L 623.409814 188.638125 
L 627.280484 188.638125 
L 631.280175 188.638125 
L 635.279867 188.638125 
L 639.150537 188.638125 
L 643.150228 188.638125 
L 647.020898 188.638125 
L 651.020589 188.638125 
L 655.020281 188.638125 
L 658.632906 188.638125 
L 662.632597 188.638125 
L 666.503267 188.638125 
L 670.502959 188.638125 
L 674.373628 188.638125 
L 678.37332 188.638125 
L 682.373011 188.638125 
L 682.373011 106.179272 
L 682.373011 106.179272 
L 678.37332 106.278025 
L 674.373628 103.098175 
L 670.502959 105.349746 
L 666.503267 103.019172 
L 662.632597 90.082514 
L 658.632906 105.883013 
L 655.020281 110.247901 
L 651.020589 108.924609 
L 647.020898 103.710444 
L 643.150228 100.234334 
L 639.150537 106.238524 
L 635.279867 108.667851 
L 631.280175 97.054484 
L 627.280484 92.610594 
L 623.409814 89.865257 
L 619.410123 93.400619 
L 615.539453 110.86017 
L 611.539762 114.277028 
L 607.798114 114.494285 
L 603.798423 123.164808 
L 599.798731 119.649197 
L 595.928062 114.948549 
L 591.92837 128.793736 
L 588.057701 121.663761 
L 584.058009 119.668948 
L 580.058317 131.716828 
L 576.187648 125.692888 
L 572.187956 125.021367 
L 568.317287 123.678325 
L 564.317595 129.978773 
L 560.70497 132.862364 
L 556.705279 140.3281 
L 552.705587 131.084808 
L 548.834917 131.637826 
L 544.835226 138.609796 
L 540.964556 131.163811 
L 536.964865 129.662763 
L 532.965173 135.508948 
L 529.094504 137.760519 
L 525.094812 139.617078 
L 521.224142 135.943462 
L 517.224451 144.929995 
L 513.611826 145.40401 
L 509.612134 151.684709 
L 505.612443 146.411292 
L 501.741773 145.72002 
L 497.742081 149.808399 
L 493.871412 146.470544 
L 489.87172 147.61608 
L 485.872029 149.551641 
L 482.001359 150.657676 
L 478.001668 152.336479 
L 474.130998 149.433137 
L 470.131306 157.74815 
L 466.518682 158.320918 
L 462.51899 160.690993 
L 458.519298 158.972689 
L 454.648629 162.014285 
L 450.648937 162.666055 
L 446.778268 161.599522 
L 442.778576 159.584958 
L 438.778884 163.258574 
L 434.908215 163.377078 
L 430.908523 165.03613 
L 427.037854 166.61618 
L 423.038162 168.117227 
L 419.296515 170.605806 
L 415.296823 171.020569 
L 411.297132 170.961317 
L 407.426462 169.954035 
L 403.426771 172.778374 
L 399.556101 173.706654 
L 395.55641 171.632838 
L 391.556718 173.430145 
L 387.686048 175.385457 
L 383.686357 174.674434 
L 379.815687 175.326205 
L 375.815996 178.051791 
L 372.203371 179.059073 
L 368.203679 180.402115 
L 364.203988 178.446803 
L 360.333318 179.039322 
L 356.333626 178.98007 
L 352.462957 179.157826 
L 348.463265 179.059073 
L 344.463574 179.533088 
L 340.592904 179.513337 
L 336.593213 178.901068 
L 332.722543 178.229546 
L 328.722851 180.619372 
L 325.110227 179.730594 
L 321.110535 182.061167 
L 317.110843 181.606903 
L 313.240174 181.547651 
L 309.240482 183.878225 
L 305.369813 183.028948 
L 301.370121 182.930195 
L 297.370429 183.779472 
L 293.49976 184.174484 
L 289.500068 184.885507 
L 285.629399 185.221267 
L 281.629707 184.964509 
L 278.017082 185.557028 
L 274.017391 186.189048 
L 270.017699 186.26805 
L 266.14703 186.603811 
L 262.147338 186.801317 
L 258.276669 186.90007 
L 254.276977 187.334584 
L 250.277285 187.650594 
L 246.406616 187.788848 
L 242.406924 188.124609 
L 238.536255 188.045606 
L 234.536563 188.559123 
L 230.794916 188.519621 
L 226.795224 188.618374 
L 222.795532 188.598624 
L 218.924863 188.559123 
L 214.925171 188.618374 
L 211.054502 188.638125 
L 207.05481 188.638125 
L 203.055119 188.618374 
L 199.184449 188.638125 
L 195.184757 188.598624 
L 191.314088 188.618374 
L 187.314396 188.638125 
L 183.701772 188.638125 
L 179.70208 188.638125 
L 175.702388 188.638125 
L 171.831719 188.638125 
L 167.832027 188.638125 
L 163.961358 188.638125 
L 159.961666 188.638125 
L 155.961974 188.638125 
L 152.091305 188.638125 
L 148.091613 188.638125 
L 144.220944 188.638125 
L 140.221252 188.638125 
L 136.608627 188.638125 
L 132.608936 188.638125 
L 128.609244 188.638125 
L 124.738575 188.638125 
L 120.738883 188.638125 
L 116.868213 188.638125 
L 112.868522 188.638125 
L 108.86883 188.638125 
L 104.998161 188.638125 
L 100.998469 188.638125 
L 97.1278 188.638125 
L 93.128108 188.638125 
L 89.515483 188.638125 
L 85.515791 188.638125 
L 81.5161 188.638125 
L 77.64543 188.638125 
L 73.645739 188.638125 
z
" clip-path="url(#p6402814d1e)" style="fill: #1f77b4"/>
   </g>
   <g id="PolyCollection_2">
    <path d="M 73.645739 188.578873 
L 73.645739 188.638125 
L 77.64543 188.638125 
L 81.5161 188.638125 
L 85.515791 188.638125 
L 89.515483 188.638125 
L 93.128108 188.638125 
L 97.1278 188.638125 
L 100.998469 188.638125 
L 104.998161 188.638125 
L 108.86883 188.638125 
L 112.868522 188.638125 
L 116.868213 188.638125 
L 120.738883 188.638125 
L 124.738575 188.638125 
L 128.609244 188.638125 
L 132.608936 188.638125 
L 136.608627 188.638125 
L 140.221252 188.638125 
L 144.220944 188.638125 
L 148.091613 188.638125 
L 152.091305 188.638125 
L 155.961974 188.638125 
L 159.961666 188.638125 
L 163.961358 188.638125 
L 167.832027 188.638125 
L 171.831719 188.638125 
L 175.702388 188.638125 
L 179.70208 188.638125 
L 183.701772 188.638125 
L 187.314396 188.638125 
L 191.314088 188.618374 
L 195.184757 188.598624 
L 199.184449 188.638125 
L 203.055119 188.618374 
L 207.05481 188.638125 
L 211.054502 188.638125 
L 214.925171 188.618374 
L 218.924863 188.559123 
L 222.795532 188.598624 
L 226.795224 188.618374 
L 230.794916 188.519621 
L 234.536563 188.559123 
L 238.536255 188.045606 
L 242.406924 188.124609 
L 246.406616 187.788848 
L 250.277285 187.650594 
L 254.276977 187.334584 
L 258.276669 186.90007 
L 262.147338 186.801317 
L 266.14703 186.603811 
L 270.017699 186.26805 
L 274.017391 186.189048 
L 278.017082 185.557028 
L 281.629707 184.964509 
L 285.629399 185.221267 
L 289.500068 184.885507 
L 293.49976 184.174484 
L 297.370429 183.779472 
L 301.370121 182.930195 
L 305.369813 183.028948 
L 309.240482 183.878225 
L 313.240174 181.547651 
L 317.110843 181.606903 
L 321.110535 182.061167 
L 325.110227 179.730594 
L 328.722851 180.619372 
L 332.722543 178.229546 
L 336.593213 178.901068 
L 340.592904 179.513337 
L 344.463574 179.533088 
L 348.463265 179.059073 
L 352.462957 179.157826 
L 356.333626 178.98007 
L 360.333318 179.039322 
L 364.203988 178.446803 
L 368.203679 180.402115 
L 372.203371 179.059073 
L 375.815996 178.051791 
L 379.815687 175.326205 
L 383.686357 174.674434 
L 387.686048 175.385457 
L 391.556718 173.430145 
L 395.55641 171.632838 
L 399.556101 173.706654 
L 403.426771 172.778374 
L 407.426462 169.954035 
L 411.297132 170.961317 
L 415.296823 171.020569 
L 419.296515 170.605806 
L 423.038162 168.117227 
L 427.037854 166.61618 
L 430.908523 165.03613 
L 434.908215 163.377078 
L 438.778884 163.258574 
L 442.778576 159.584958 
L 446.778268 161.599522 
L 450.648937 162.666055 
L 454.648629 162.014285 
L 458.519298 158.972689 
L 462.51899 160.690993 
L 466.518682 158.320918 
L 470.131306 157.74815 
L 474.130998 149.433137 
L 478.001668 152.336479 
L 482.001359 150.657676 
L 485.872029 149.551641 
L 489.87172 147.61608 
L 493.871412 146.470544 
L 497.742081 149.808399 
L 501.741773 145.72002 
L 505.612443 146.411292 
L 509.612134 151.684709 
L 513.611826 145.40401 
L 517.224451 144.929995 
L 521.224142 135.943462 
L 525.094812 139.617078 
L 529.094504 137.760519 
L 532.965173 135.508948 
L 536.964865 129.662763 
L 540.964556 131.163811 
L 544.835226 138.609796 
L 548.834917 131.637826 
L 552.705587 131.084808 
L 556.705279 140.3281 
L 560.70497 132.862364 
L 564.317595 129.978773 
L 568.317287 123.678325 
L 572.187956 125.021367 
L 576.187648 125.692888 
L 580.058317 131.716828 
L 584.058009 119.668948 
L 588.057701 121.663761 
L 591.92837 128.793736 
L 595.928062 114.948549 
L 599.798731 119.649197 
L 603.798423 123.164808 
L 607.798114 114.494285 
L 611.539762 114.277028 
L 615.539453 110.86017 
L 619.410123 93.400619 
L 623.409814 89.865257 
L 627.280484 92.610594 
L 631.280175 97.054484 
L 635.279867 108.667851 
L 639.150537 106.238524 
L 643.150228 100.234334 
L 647.020898 103.710444 
L 651.020589 108.924609 
L 655.020281 110.247901 
L 658.632906 105.883013 
L 662.632597 90.082514 
L 666.503267 103.019172 
L 670.502959 105.349746 
L 674.373628 103.098175 
L 678.37332 106.278025 
L 682.373011 106.179272 
L 682.373011 84.552339 
L 682.373011 84.552339 
L 678.37332 82.02426 
L 674.373628 79.120918 
L 670.502959 79.357925 
L 666.503267 76.33608 
L 662.632597 60.081317 
L 658.632906 81.016978 
L 655.020281 85.480619 
L 651.020589 83.110544 
L 647.020898 75.743561 
L 643.150228 71.951442 
L 639.150537 81.41199 
L 635.279867 85.342364 
L 631.280175 68.534584 
L 627.280484 63.478424 
L 623.409814 57.968 
L 619.410123 63.458674 
L 615.539453 86.803911 
L 611.539762 90.754035 
L 607.798114 94.131392 
L 603.798423 102.782165 
L 599.798731 96.61997 
L 595.928062 91.326803 
L 591.92837 110.070145 
L 588.057701 101.340369 
L 584.058009 98.555531 
L 580.058317 113.980768 
L 576.187648 105.665756 
L 572.187956 102.683412 
L 568.317287 99.701068 
L 564.317595 108.727103 
L 560.70497 114.67204 
L 556.705279 122.295781 
L 552.705587 110.939172 
L 548.834917 111.847701 
L 544.835226 120.853985 
L 540.964556 111.887202 
L 536.964865 109.023362 
L 532.965173 117.121118 
L 529.094504 118.839422 
L 525.094812 120.498474 
L 521.224142 115.067053 
L 517.224451 124.962115 
L 513.611826 125.613886 
L 509.612134 133.415382 
L 505.612443 125.159621 
L 501.741773 124.053586 
L 497.742081 131.855083 
L 493.871412 127.134684 
L 489.87172 127.588948 
L 485.872029 130.670045 
L 482.001359 131.637826 
L 478.001668 132.111841 
L 474.130998 127.924709 
L 470.131306 139.36032 
L 466.518682 142.559921 
L 462.51899 145.957028 
L 458.519298 142.461167 
L 454.648629 146.33229 
L 450.648937 147.61608 
L 446.778268 146.628549 
L 442.778576 144.001716 
L 438.778884 148.070344 
L 434.908215 149.749147 
L 430.908523 148.840619 
L 427.037854 150.677427 
L 423.038162 153.264758 
L 419.296515 157.076629 
L 415.296823 159.486205 
L 411.297132 157.767901 
L 407.426462 158.083911 
L 403.426771 162.251292 
L 399.556101 162.646305 
L 395.55641 158.775182 
L 391.556718 161.579771 
L 387.686048 163.021566 
L 383.686357 162.962315 
L 379.815687 162.567302 
L 375.815996 167.149447 
L 372.203371 169.282514 
L 368.203679 172.106853 
L 364.203988 169.381267 
L 360.333318 168.768998 
L 356.333626 170.586055 
L 352.462957 169.934285 
L 348.463265 169.559023 
L 344.463574 170.941566 
L 340.592904 169.46027 
L 336.593213 168.907252 
L 332.722543 167.070444 
L 328.722851 169.638025 
L 325.110227 170.11204 
L 321.110535 174.121417 
L 317.110843 172.0081 
L 313.240174 172.64012 
L 309.240482 176.096479 
L 305.369813 176.372988 
L 301.370121 174.733686 
L 297.370429 177.953038 
L 293.49976 177.024758 
L 289.500068 177.301267 
L 285.629399 178.743063 
L 281.629707 179.375083 
L 278.017082 180.520619 
L 274.017391 182.061167 
L 270.017699 180.757626 
L 266.14703 181.725407 
L 262.147338 182.258674 
L 258.276669 182.515432 
L 254.276977 183.325207 
L 250.277285 184.134983 
L 246.406616 184.391741 
L 242.406924 185.043512 
L 238.536255 184.747252 
L 234.536563 185.596529 
L 230.794916 185.675531 
L 226.795224 186.485307 
L 222.795532 186.485307 
L 218.924863 185.813786 
L 214.925171 186.2483 
L 211.054502 186.189048 
L 207.05481 186.761816 
L 203.055119 186.939571 
L 199.184449 186.801317 
L 195.184757 186.603811 
L 191.314088 186.327302 
L 187.314396 187.413586 
L 183.701772 187.630843 
L 179.70208 187.374085 
L 175.702388 187.334584 
L 171.831719 187.630843 
L 167.832027 187.808599 
L 163.961358 187.670344 
L 159.961666 187.927103 
L 155.961974 187.788848 
L 152.091305 188.025856 
L 148.091613 187.808599 
L 144.220944 187.867851 
L 140.221252 187.8481 
L 136.608627 188.223362 
L 132.608936 188.124609 
L 128.609244 187.867851 
L 124.738575 188.104858 
L 120.738883 188.48012 
L 116.868213 188.460369 
L 112.868522 188.519621 
L 108.86883 188.381367 
L 104.998161 188.499871 
L 100.998469 188.499871 
L 97.1278 188.559123 
L 93.128108 188.499871 
L 89.515483 188.499871 
L 85.515791 188.559123 
L 81.5161 188.578873 
L 77.64543 188.598624 
L 73.645739 188.578873 
z
" clip-path="url(#p6402814d1e)" style="fill: #ff7f0e"/>
   </g>
   <g id="PolyCollection_3">
    <path d="M 73.645739 188.539372 
L 73.645739 188.578873 
L 77.64543 188.598624 
L 81.5161 188.578873 
L 85.515791 188.559123 
L 89.515483 188.499871 
L 93.128108 188.499871 
L 97.1278 188.559123 
L 100.998469 188.499871 
L 104.998161 188.499871 
L 108.86883 188.381367 
L 112.868522 188.519621 
L 116.868213 188.460369 
L 120.738883 188.48012 
L 124.738575 188.104858 
L 128.609244 187.867851 
L 132.608936 188.124609 
L 136.608627 188.223362 
L 140.221252 187.8481 
L 144.220944 187.867851 
L 148.091613 187.808599 
L 152.091305 188.025856 
L 155.961974 187.788848 
L 159.961666 187.927103 
L 163.961358 187.670344 
L 167.832027 187.808599 
L 171.831719 187.630843 
L 175.702388 187.334584 
L 179.70208 187.374085 
L 183.701772 187.630843 
L 187.314396 187.413586 
L 191.314088 186.327302 
L 195.184757 186.603811 
L 199.184449 186.801317 
L 203.055119 186.939571 
L 207.05481 186.761816 
L 211.054502 186.189048 
L 214.925171 186.2483 
L 218.924863 185.813786 
L 222.795532 186.485307 
L 226.795224 186.485307 
L 230.794916 185.675531 
L 234.536563 185.596529 
L 238.536255 184.747252 
L 242.406924 185.043512 
L 246.406616 184.391741 
L 250.277285 184.134983 
L 254.276977 183.325207 
L 258.276669 182.515432 
L 262.147338 182.258674 
L 266.14703 181.725407 
L 270.017699 180.757626 
L 274.017391 182.061167 
L 278.017082 180.520619 
L 281.629707 179.375083 
L 285.629399 178.743063 
L 289.500068 177.301267 
L 293.49976 177.024758 
L 297.370429 177.953038 
L 301.370121 174.733686 
L 305.369813 176.372988 
L 309.240482 176.096479 
L 313.240174 172.64012 
L 317.110843 172.0081 
L 321.110535 174.121417 
L 325.110227 170.11204 
L 328.722851 169.638025 
L 332.722543 167.070444 
L 336.593213 168.907252 
L 340.592904 169.46027 
L 344.463574 170.941566 
L 348.463265 169.559023 
L 352.462957 169.934285 
L 356.333626 170.586055 
L 360.333318 168.768998 
L 364.203988 169.381267 
L 368.203679 172.106853 
L 372.203371 169.282514 
L 375.815996 167.149447 
L 379.815687 162.567302 
L 383.686357 162.962315 
L 387.686048 163.021566 
L 391.556718 161.579771 
L 395.55641 158.775182 
L 399.556101 162.646305 
L 403.426771 162.251292 
L 407.426462 158.083911 
L 411.297132 157.767901 
L 415.296823 159.486205 
L 419.296515 157.076629 
L 423.038162 153.264758 
L 427.037854 150.677427 
L 430.908523 148.840619 
L 434.908215 149.749147 
L 438.778884 148.070344 
L 442.778576 144.001716 
L 446.778268 146.628549 
L 450.648937 147.61608 
L 454.648629 146.33229 
L 458.519298 142.461167 
L 462.51899 145.957028 
L 466.518682 142.559921 
L 470.131306 139.36032 
L 474.130998 127.924709 
L 478.001668 132.111841 
L 482.001359 131.637826 
L 485.872029 130.670045 
L 489.87172 127.588948 
L 493.871412 127.134684 
L 497.742081 131.855083 
L 501.741773 124.053586 
L 505.612443 125.159621 
L 509.612134 133.415382 
L 513.611826 125.613886 
L 517.224451 124.962115 
L 521.224142 115.067053 
L 525.094812 120.498474 
L 529.094504 118.839422 
L 532.965173 117.121118 
L 536.964865 109.023362 
L 540.964556 111.887202 
L 544.835226 120.853985 
L 548.834917 111.847701 
L 552.705587 110.939172 
L 556.705279 122.295781 
L 560.70497 114.67204 
L 564.317595 108.727103 
L 568.317287 99.701068 
L 572.187956 102.683412 
L 576.187648 105.665756 
L 580.058317 113.980768 
L 584.058009 98.555531 
L 588.057701 101.340369 
L 591.92837 110.070145 
L 595.928062 91.326803 
L 599.798731 96.61997 
L 603.798423 102.782165 
L 607.798114 94.131392 
L 611.539762 90.754035 
L 615.539453 86.803911 
L 619.410123 63.458674 
L 623.409814 57.968 
L 627.280484 63.478424 
L 631.280175 68.534584 
L 635.279867 85.342364 
L 639.150537 81.41199 
L 643.150228 71.951442 
L 647.020898 75.743561 
L 651.020589 83.110544 
L 655.020281 85.480619 
L 658.632906 81.016978 
L 662.632597 60.081317 
L 666.503267 76.33608 
L 670.502959 79.357925 
L 674.373628 79.120918 
L 678.37332 82.02426 
L 682.373011 84.552339 
L 682.373011 68.317327 
L 682.373011 68.317327 
L 678.37332 65.710245 
L 674.373628 64.327701 
L 670.502959 63.083412 
L 666.503267 56.486704 
L 662.632597 39.955432 
L 658.632906 62.668649 
L 655.020281 67.46805 
L 651.020589 64.900469 
L 647.020898 55.518923 
L 643.150228 52.437826 
L 639.150537 63.063661 
L 635.279867 69.976379 
L 631.280175 48.882714 
L 627.280484 43.352539 
L 623.409814 34.682015 
L 619.410123 42.246504 
L 615.539453 69.146853 
L 611.539762 76.632339 
L 607.798114 80.187452 
L 603.798423 90.57628 
L 599.798731 82.834035 
L 595.928062 77.244609 
L 591.92837 99.207302 
L 588.057701 88.403711 
L 584.058009 85.816379 
L 580.058317 102.762414 
L 576.187648 91.781068 
L 572.187956 89.055482 
L 568.317287 85.460868 
L 564.317595 96.481716 
L 560.70497 103.25618 
L 556.705279 110.287402 
L 552.705587 97.23224 
L 548.834917 99.029546 
L 544.835226 109.102364 
L 540.964556 99.562813 
L 536.964865 96.086704 
L 532.965173 105.033736 
L 529.094504 107.601317 
L 525.094812 109.240619 
L 521.224142 103.354933 
L 517.224451 114.612788 
L 513.611826 114.277028 
L 509.612134 123.125307 
L 505.612443 112.835232 
L 501.741773 112.874733 
L 497.742081 122.513038 
L 493.871412 116.607601 
L 489.87172 115.126305 
L 485.872029 118.246903 
L 482.001359 119.392439 
L 478.001668 118.582664 
L 474.130998 114.909048 
L 470.131306 128.754235 
L 466.518682 133.849896 
L 462.51899 138.372788 
L 458.519298 133.435132 
L 454.648629 137.405008 
L 450.648937 139.222065 
L 446.778268 137.187751 
L 442.778576 134.244908 
L 438.778884 138.293786 
L 434.908215 140.229347 
L 430.908523 138.43204 
L 427.037854 140.209596 
L 423.038162 144.021467 
L 419.296515 147.872838 
L 415.296823 151.980968 
L 411.297132 147.93209 
L 407.426462 150.519422 
L 403.426771 155.081816 
L 399.556101 155.20032 
L 395.55641 148.603611 
L 391.556718 154.173287 
L 387.686048 155.259571 
L 383.686357 155.871841 
L 379.815687 155.141068 
L 375.815996 160.848998 
L 372.203371 163.574584 
L 368.203679 166.576679 
L 364.203988 162.725307 
L 360.333318 163.594334 
L 356.333626 165.332389 
L 352.462957 163.495581 
L 348.463265 162.073536 
L 344.463574 165.529896 
L 340.592904 163.219073 
L 336.593213 162.014285 
L 332.722543 159.130694 
L 328.722851 162.527801 
L 325.110227 163.45608 
L 321.110535 169.243013 
L 317.110843 165.747152 
L 313.240174 166.517427 
L 309.240482 170.704559 
L 305.369813 171.731591 
L 301.370121 169.48002 
L 297.370429 173.90416 
L 293.49976 172.284609 
L 289.500068 172.620369 
L 285.629399 174.239921 
L 281.629707 175.010195 
L 278.017082 176.45199 
L 274.017391 178.920818 
L 270.017699 177.340768 
L 266.14703 178.249297 
L 262.147338 179.987352 
L 258.276669 179.276329 
L 254.276977 180.362614 
L 250.277285 181.666155 
L 246.406616 181.962414 
L 242.406924 182.870943 
L 238.536255 182.693187 
L 234.536563 183.246205 
L 230.794916 183.937477 
L 226.795224 184.628748 
L 222.795532 184.846005 
L 218.924863 184.174484 
L 214.925171 185.043512 
L 211.054502 184.727502 
L 207.05481 185.61628 
L 203.055119 185.695282 
L 199.184449 185.497776 
L 195.184757 185.458275 
L 191.314088 184.865756 
L 187.314396 186.287801 
L 183.701772 186.840818 
L 179.70208 186.919821 
L 175.702388 186.58406 
L 171.831719 186.939571 
L 167.832027 187.235831 
L 163.961358 186.979073 
L 159.961666 187.374085 
L 155.961974 187.235831 
L 152.091305 187.650594 
L 148.091613 187.374085 
L 144.220944 187.21608 
L 140.221252 187.354334 
L 136.608627 187.907352 
L 132.608936 187.907352 
L 128.609244 187.630843 
L 124.738575 187.907352 
L 120.738883 188.262863 
L 116.868213 188.203611 
L 112.868522 188.401118 
L 108.86883 188.341866 
L 104.998161 188.361616 
L 100.998469 188.361616 
L 97.1278 188.499871 
L 93.128108 188.440619 
L 89.515483 188.48012 
L 85.515791 188.519621 
L 81.5161 188.578873 
L 77.64543 188.598624 
L 73.645739 188.539372 
z
" clip-path="url(#p6402814d1e)" style="fill: #2ca02c"/>
   </g>
   <g id="PolyCollection_4">
    <path d="M 73.645739 188.539372 
L 73.645739 188.539372 
L 77.64543 188.598624 
L 81.5161 188.578873 
L 85.515791 188.519621 
L 89.515483 188.48012 
L 93.128108 188.440619 
L 97.1278 188.499871 
L 100.998469 188.361616 
L 104.998161 188.361616 
L 108.86883 188.341866 
L 112.868522 188.401118 
L 116.868213 188.203611 
L 120.738883 188.262863 
L 124.738575 187.907352 
L 128.609244 187.630843 
L 132.608936 187.907352 
L 136.608627 187.907352 
L 140.221252 187.354334 
L 144.220944 187.21608 
L 148.091613 187.374085 
L 152.091305 187.650594 
L 155.961974 187.235831 
L 159.961666 187.374085 
L 163.961358 186.979073 
L 167.832027 187.235831 
L 171.831719 186.939571 
L 175.702388 186.58406 
L 179.70208 186.919821 
L 183.701772 186.840818 
L 187.314396 186.287801 
L 191.314088 184.865756 
L 195.184757 185.458275 
L 199.184449 185.497776 
L 203.055119 185.695282 
L 207.05481 185.61628 
L 211.054502 184.727502 
L 214.925171 185.043512 
L 218.924863 184.174484 
L 222.795532 184.846005 
L 226.795224 184.628748 
L 230.794916 183.937477 
L 234.536563 183.246205 
L 238.536255 182.693187 
L 242.406924 182.870943 
L 246.406616 181.962414 
L 250.277285 181.666155 
L 254.276977 180.362614 
L 258.276669 179.276329 
L 262.147338 179.987352 
L 266.14703 178.249297 
L 270.017699 177.340768 
L 274.017391 178.920818 
L 278.017082 176.45199 
L 281.629707 175.010195 
L 285.629399 174.239921 
L 289.500068 172.620369 
L 293.49976 172.284609 
L 297.370429 173.90416 
L 301.370121 169.48002 
L 305.369813 171.731591 
L 309.240482 170.704559 
L 313.240174 166.517427 
L 317.110843 165.747152 
L 321.110535 169.243013 
L 325.110227 163.45608 
L 328.722851 162.527801 
L 332.722543 159.130694 
L 336.593213 162.014285 
L 340.592904 163.219073 
L 344.463574 165.529896 
L 348.463265 162.073536 
L 352.462957 163.495581 
L 356.333626 165.332389 
L 360.333318 163.594334 
L 364.203988 162.725307 
L 368.203679 166.576679 
L 372.203371 163.574584 
L 375.815996 160.848998 
L 379.815687 155.141068 
L 383.686357 155.871841 
L 387.686048 155.259571 
L 391.556718 154.173287 
L 395.55641 148.603611 
L 399.556101 155.20032 
L 403.426771 155.081816 
L 407.426462 150.519422 
L 411.297132 147.93209 
L 415.296823 151.980968 
L 419.296515 147.872838 
L 423.038162 144.021467 
L 427.037854 140.209596 
L 430.908523 138.43204 
L 434.908215 140.229347 
L 438.778884 138.293786 
L 442.778576 134.244908 
L 446.778268 137.187751 
L 450.648937 139.222065 
L 454.648629 137.405008 
L 458.519298 133.435132 
L 462.51899 138.372788 
L 466.518682 133.849896 
L 470.131306 128.754235 
L 474.130998 114.909048 
L 478.001668 118.582664 
L 482.001359 119.392439 
L 485.872029 118.246903 
L 489.87172 115.126305 
L 493.871412 116.607601 
L 497.742081 122.513038 
L 501.741773 112.874733 
L 505.612443 112.835232 
L 509.612134 123.125307 
L 513.611826 114.277028 
L 517.224451 114.612788 
L 521.224142 103.354933 
L 525.094812 109.240619 
L 529.094504 107.601317 
L 532.965173 105.033736 
L 536.964865 96.086704 
L 540.964556 99.562813 
L 544.835226 109.102364 
L 548.834917 99.029546 
L 552.705587 97.23224 
L 556.705279 110.287402 
L 560.70497 103.25618 
L 564.317595 96.481716 
L 568.317287 85.460868 
L 572.187956 89.055482 
L 576.187648 91.781068 
L 580.058317 102.762414 
L 584.058009 85.816379 
L 588.057701 88.403711 
L 591.92837 99.207302 
L 595.928062 77.244609 
L 599.798731 82.834035 
L 603.798423 90.57628 
L 607.798114 80.187452 
L 611.539762 76.632339 
L 615.539453 69.146853 
L 619.410123 42.246504 
L 623.409814 34.682015 
L 627.280484 43.352539 
L 631.280175 48.882714 
L 635.279867 69.976379 
L 639.150537 63.063661 
L 643.150228 52.437826 
L 647.020898 55.518923 
L 651.020589 64.900469 
L 655.020281 67.46805 
L 658.632906 62.668649 
L 662.632597 39.955432 
L 666.503267 56.486704 
L 670.502959 63.083412 
L 674.373628 64.327701 
L 678.37332 65.710245 
L 682.373011 68.317327 
L 682.373011 64.959721 
L 682.373011 64.959721 
L 678.37332 62.688399 
L 674.373628 61.049098 
L 670.502959 59.646803 
L 666.503267 52.358823 
L 662.632597 35.867053 
L 658.632906 59.469048 
L 655.020281 63.201916 
L 651.020589 61.918125 
L 647.020898 51.667551 
L 643.150228 48.882714 
L 639.150537 59.646803 
L 635.279867 66.796529 
L 631.280175 45.110344 
L 627.280484 39.165407 
L 623.409814 30.238125 
L 619.410123 38.513636 
L 615.539453 66.026255 
L 611.539762 74.025257 
L 607.798114 77.718624 
L 603.798423 88.522215 
L 599.798731 80.602215 
L 595.928062 75.190544 
L 591.92837 97.745756 
L 588.057701 86.507651 
L 584.058009 83.466055 
L 580.058317 100.846604 
L 576.187648 89.470245 
L 572.187956 86.78416 
L 568.317287 83.130295 
L 564.317595 94.901666 
L 560.70497 101.36012 
L 556.705279 108.411093 
L 552.705587 95.612689 
L 548.834917 97.212489 
L 544.835226 107.561816 
L 540.964556 97.528499 
L 536.964865 94.348649 
L 532.965173 103.552439 
L 529.094504 106.139771 
L 525.094812 107.956828 
L 521.224142 102.011891 
L 517.224451 113.506753 
L 513.611826 113.111741 
L 509.612134 122.355033 
L 505.612443 111.82795 
L 501.741773 111.966205 
L 497.742081 121.248998 
L 493.871412 115.027551 
L 489.87172 113.684509 
L 485.872029 117.160619 
L 482.001359 118.286404 
L 478.001668 117.298873 
L 474.130998 113.684509 
L 470.131306 127.806205 
L 466.518682 132.961118 
L 462.51899 137.681517 
L 458.519298 132.704359 
L 454.648629 136.417477 
L 450.648937 138.550544 
L 446.778268 135.963212 
L 442.778576 133.533886 
L 438.778884 137.503761 
L 434.908215 139.261566 
L 430.908523 137.48401 
L 427.037854 139.222065 
L 423.038162 143.093187 
L 419.296515 147.201317 
L 415.296823 151.230444 
L 411.297132 147.063063 
L 407.426462 149.709646 
L 403.426771 154.746055 
L 399.556101 154.706554 
L 395.55641 147.61608 
L 391.556718 153.659771 
L 387.686048 154.90406 
L 383.686357 155.457078 
L 379.815687 154.686803 
L 375.815996 160.730494 
L 372.203371 163.278325 
L 368.203679 166.240918 
L 364.203988 162.527801 
L 360.333318 163.357327 
L 356.333626 165.095382 
L 352.462957 163.278325 
L 348.463265 161.974783 
L 344.463574 165.490394 
L 340.592904 163.100569 
L 336.593213 161.836529 
L 332.722543 159.071442 
L 328.722851 162.448798 
L 325.110227 163.45608 
L 321.110535 169.203512 
L 317.110843 165.747152 
L 313.240174 166.517427 
L 309.240482 170.704559 
L 305.369813 171.731591 
L 301.370121 169.48002 
L 297.370429 173.90416 
L 293.49976 172.284609 
L 289.500068 172.620369 
L 285.629399 174.239921 
L 281.629707 174.990444 
L 278.017082 176.45199 
L 274.017391 178.920818 
L 270.017699 177.340768 
L 266.14703 178.249297 
L 262.147338 179.987352 
L 258.276669 179.276329 
L 254.276977 180.362614 
L 250.277285 181.666155 
L 246.406616 181.962414 
L 242.406924 182.870943 
L 238.536255 182.693187 
L 234.536563 183.246205 
L 230.794916 183.937477 
L 226.795224 184.608998 
L 222.795532 184.846005 
L 218.924863 184.154733 
L 214.925171 185.043512 
L 211.054502 184.727502 
L 207.05481 185.61628 
L 203.055119 185.695282 
L 199.184449 185.497776 
L 195.184757 185.458275 
L 191.314088 184.865756 
L 187.314396 186.287801 
L 183.701772 186.821068 
L 179.70208 186.919821 
L 175.702388 186.58406 
L 171.831719 186.939571 
L 167.832027 187.235831 
L 163.961358 186.979073 
L 159.961666 187.374085 
L 155.961974 187.235831 
L 152.091305 187.650594 
L 148.091613 187.374085 
L 144.220944 187.21608 
L 140.221252 187.354334 
L 136.608627 187.907352 
L 132.608936 187.907352 
L 128.609244 187.630843 
L 124.738575 187.907352 
L 120.738883 188.262863 
L 116.868213 188.203611 
L 112.868522 188.401118 
L 108.86883 188.341866 
L 104.998161 188.361616 
L 100.998469 188.361616 
L 97.1278 188.499871 
L 93.128108 188.440619 
L 89.515483 188.48012 
L 85.515791 188.519621 
L 81.5161 188.578873 
L 77.64543 188.598624 
L 73.645739 188.539372 
z
" clip-path="url(#p6402814d1e)" style="fill: #d62728"/>
   </g>
   <g id="matplotlib.axis_1">
    <g id="xtick_1">
     <g id="line2d_1">
      <defs>
       <path id="mf2dbf7c837" d="M 0 0 
L 0 3.5 
" style="stroke: #000000; stroke-width: 0.8"/>
      </defs>
      <g>
       <use xlink:href="#mf2dbf7c837" x="54.034347" y="188.638125" style="stroke: #000000; stroke-width: 0.8"/>
      </g>
     </g>
     <g id="text_1">
      <!-- 2008 -->
      <g transform="translate(41.309347 203.236563) scale(0.1 -0.1)">
       <defs>
        <path id="DejaVuSans-32" d="M 1228 531 
L 3431 531 
L 3431 0 
L 469 0 
L 469 531 
Q 828 903 1448 1529 
Q 2069 2156 2228 2338 
Q 2531 2678 2651 2914 
Q 2772 3150 2772 3378 
Q 2772 3750 2511 3984 
Q 2250 4219 1831 4219 
Q 1534 4219 1204 4116 
Q 875 4013 500 3803 
L 500 4441 
Q 881 4594 1212 4672 
Q 1544 4750 1819 4750 
Q 2544 4750 2975 4387 
Q 3406 4025 3406 3419 
Q 3406 3131 3298 2873 
Q 3191 2616 2906 2266 
Q 2828 2175 2409 1742 
Q 1991 1309 1228 531 
z
" transform="scale(0.015625)"/>
        <path id="DejaVuSans-30" d="M 2034 4250 
Q 1547 4250 1301 3770 
Q 1056 3291 1056 2328 
Q 1056 1369 1301 889 
Q 1547 409 2034 409 
Q 2525 409 2770 889 
Q 3016 1369 3016 2328 
Q 3016 3291 2770 3770 
Q 2525 4250 2034 4250 
z
M 2034 4750 
Q 2819 4750 3233 4129 
Q 3647 3509 3647 2328 
Q 3647 1150 3233 529 
Q 2819 -91 2034 -91 
Q 1250 -91 836 529 
Q 422 1150 422 2328 
Q 422 3509 836 4129 
Q 1250 4750 2034 4750 
z
" transform="scale(0.015625)"/>
        <path id="DejaVuSans-38" d="M 2034 2216 
Q 1584 2216 1326 1975 
Q 1069 1734 1069 1313 
Q 1069 891 1326 650 
Q 1584 409 2034 409 
Q 2484 409 2743 651 
Q 3003 894 3003 1313 
Q 3003 1734 2745 1975 
Q 2488 2216 2034 2216 
z
M 1403 2484 
Q 997 2584 770 2862 
Q 544 3141 544 3541 
Q 544 4100 942 4425 
Q 1341 4750 2034 4750 
Q 2731 4750 3128 4425 
Q 3525 4100 3525 3541 
Q 3525 3141 3298 2862 
Q 3072 2584 2669 2484 
Q 3125 2378 3379 2068 
Q 3634 1759 3634 1313 
Q 3634 634 3220 271 
Q 2806 -91 2034 -91 
Q 1263 -91 848 271 
Q 434 634 434 1313 
Q 434 1759 690 2068 
Q 947 2378 1403 2484 
z
M 1172 3481 
Q 1172 3119 1398 2916 
Q 1625 2713 2034 2713 
Q 2441 2713 2670 2916 
Q 2900 3119 2900 3481 
Q 2900 3844 2670 4047 
Q 2441 4250 2034 4250 
Q 1625 4250 1398 4047 
Q 1172 3844 1172 3481 
z
" transform="scale(0.015625)"/>
       </defs>
       <use xlink:href="#DejaVuSans-32"/>
       <use xlink:href="#DejaVuSans-30" x="63.623047"/>
       <use xlink:href="#DejaVuSans-30" x="127.246094"/>
       <use xlink:href="#DejaVuSans-38" x="190.869141"/>
      </g>
     </g>
    </g>
    <g id="xtick_2">
     <g id="line2d_2">
      <g>
       <use xlink:href="#mf2dbf7c837" x="183.05666" y="188.638125" style="stroke: #000000; stroke-width: 0.8"/>
      </g>
     </g>
     <g id="text_2">
      <!-- 2011 -->
      <g transform="translate(170.33166 203.236563) scale(0.1 -0.1)">
       <defs>
        <path id="DejaVuSans-31" d="M 794 531 
L 1825 531 
L 1825 4091 
L 703 3866 
L 703 4441 
L 1819 4666 
L 2450 4666 
L 2450 531 
L 3481 531 
L 3481 0 
L 794 0 
L 794 531 
z
" transform="scale(0.015625)"/>
       </defs>
       <use xlink:href="#DejaVuSans-32"/>
       <use xlink:href="#DejaVuSans-30" x="63.623047"/>
       <use xlink:href="#DejaVuSans-31" x="127.246094"/>
       <use xlink:href="#DejaVuSans-31" x="190.869141"/>
      </g>
     </g>
    </g>
    <g id="xtick_3">
     <g id="line2d_3">
      <g>
       <use xlink:href="#mf2dbf7c837" x="312.078973" y="188.638125" style="stroke: #000000; stroke-width: 0.8"/>
      </g>
     </g>
     <g id="text_3">
      <!-- 2013 -->
      <g transform="translate(299.353973 203.236563) scale(0.1 -0.1)">
       <defs>
        <path id="DejaVuSans-33" d="M 2597 2516 
Q 3050 2419 3304 2112 
Q 3559 1806 3559 1356 
Q 3559 666 3084 287 
Q 2609 -91 1734 -91 
Q 1441 -91 1130 -33 
Q 819 25 488 141 
L 488 750 
Q 750 597 1062 519 
Q 1375 441 1716 441 
Q 2309 441 2620 675 
Q 2931 909 2931 1356 
Q 2931 1769 2642 2001 
Q 2353 2234 1838 2234 
L 1294 2234 
L 1294 2753 
L 1863 2753 
Q 2328 2753 2575 2939 
Q 2822 3125 2822 3475 
Q 2822 3834 2567 4026 
Q 2313 4219 1838 4219 
Q 1578 4219 1281 4162 
Q 984 4106 628 3988 
L 628 4550 
Q 988 4650 1302 4700 
Q 1616 4750 1894 4750 
Q 2613 4750 3031 4423 
Q 3450 4097 3450 3541 
Q 3450 3153 3228 2886 
Q 3006 2619 2597 2516 
z
" transform="scale(0.015625)"/>
       </defs>
       <use xlink:href="#DejaVuSans-32"/>
       <use xlink:href="#DejaVuSans-30" x="63.623047"/>
       <use xlink:href="#DejaVuSans-31" x="127.246094"/>
       <use xlink:href="#DejaVuSans-33" x="190.869141"/>
      </g>
     </g>
    </g>
    <g id="xtick_4">
     <g id="line2d_4">
      <g>
       <use xlink:href="#mf2dbf7c837" x="441.101286" y="188.638125" style="stroke: #000000; stroke-width: 0.8"/>
      </g>
     </g>
     <g id="text_4">
      <!-- 2016 -->
      <g transform="translate(428.376286 203.236563) scale(0.1 -0.1)">
       <defs>
        <path id="DejaVuSans-36" d="M 2113 2584 
Q 1688 2584 1439 2293 
Q 1191 2003 1191 1497 
Q 1191 994 1439 701 
Q 1688 409 2113 409 
Q 2538 409 2786 701 
Q 3034 994 3034 1497 
Q 3034 2003 2786 2293 
Q 2538 2584 2113 2584 
z
M 3366 4563 
L 3366 3988 
Q 3128 4100 2886 4159 
Q 2644 4219 2406 4219 
Q 1781 4219 1451 3797 
Q 1122 3375 1075 2522 
Q 1259 2794 1537 2939 
Q 1816 3084 2150 3084 
Q 2853 3084 3261 2657 
Q 3669 2231 3669 1497 
Q 3669 778 3244 343 
Q 2819 -91 2113 -91 
Q 1303 -91 875 529 
Q 447 1150 447 2328 
Q 447 3434 972 4092 
Q 1497 4750 2381 4750 
Q 2619 4750 2861 4703 
Q 3103 4656 3366 4563 
z
" transform="scale(0.015625)"/>
       </defs>
       <use xlink:href="#DejaVuSans-32"/>
       <use xlink:href="#DejaVuSans-30" x="63.623047"/>
       <use xlink:href="#DejaVuSans-31" x="127.246094"/>
       <use xlink:href="#DejaVuSans-36" x="190.869141"/>
      </g>
     </g>
    </g>
    <g id="xtick_5">
     <g id="line2d_5">
      <g>
       <use xlink:href="#mf2dbf7c837" x="570.123599" y="188.638125" style="stroke: #000000; stroke-width: 0.8"/>
      </g>
     </g>
     <g id="text_5">
      <!-- 2019 -->
      <g transform="translate(557.398599 203.236563) scale(0.1 -0.1)">
       <defs>
        <path id="DejaVuSans-39" d="M 703 97 
L 703 672 
Q 941 559 1184 500 
Q 1428 441 1663 441 
Q 2288 441 2617 861 
Q 2947 1281 2994 2138 
Q 2813 1869 2534 1725 
Q 2256 1581 1919 1581 
Q 1219 1581 811 2004 
Q 403 2428 403 3163 
Q 403 3881 828 4315 
Q 1253 4750 1959 4750 
Q 2769 4750 3195 4129 
Q 3622 3509 3622 2328 
Q 3622 1225 3098 567 
Q 2575 -91 1691 -91 
Q 1453 -91 1209 -44 
Q 966 3 703 97 
z
M 1959 2075 
Q 2384 2075 2632 2365 
Q 2881 2656 2881 3163 
Q 2881 3666 2632 3958 
Q 2384 4250 1959 4250 
Q 1534 4250 1286 3958 
Q 1038 3666 1038 3163 
Q 1038 2656 1286 2365 
Q 1534 2075 1959 2075 
z
" transform="scale(0.015625)"/>
       </defs>
       <use xlink:href="#DejaVuSans-32"/>
       <use xlink:href="#DejaVuSans-30" x="63.623047"/>
       <use xlink:href="#DejaVuSans-31" x="127.246094"/>
       <use xlink:href="#DejaVuSans-39" x="190.869141"/>
      </g>
     </g>
    </g>
    <g id="xtick_6">
     <g id="line2d_6">
      <g>
       <use xlink:href="#mf2dbf7c837" x="699.145912" y="188.638125" style="stroke: #000000; stroke-width: 0.8"/>
      </g>
     </g>
     <g id="text_6">
      <!-- 2022 -->
      <g transform="translate(686.420912 203.236563) scale(0.1 -0.1)">
       <use xlink:href="#DejaVuSans-32"/>
       <use xlink:href="#DejaVuSans-30" x="63.623047"/>
       <use xlink:href="#DejaVuSans-32" x="127.246094"/>
       <use xlink:href="#DejaVuSans-32" x="190.869141"/>
      </g>
     </g>
    </g>
   </g>
   <g id="matplotlib.axis_2">
    <g id="ytick_1">
     <g id="line2d_7">
      <defs>
       <path id="m164824041c" d="M 0 0 
L -3.5 0 
" style="stroke: #000000; stroke-width: 0.8"/>
      </defs>
      <g>
       <use xlink:href="#m164824041c" x="43.209375" y="188.638125" style="stroke: #000000; stroke-width: 0.8"/>
      </g>
     </g>
     <g id="text_7">
      <!-- 0 -->
      <g transform="translate(29.846875 192.437344) scale(0.1 -0.1)">
       <use xlink:href="#DejaVuSans-30"/>
      </g>
     </g>
    </g>
    <g id="ytick_2">
     <g id="line2d_8">
      <g>
       <use xlink:href="#m164824041c" x="43.209375" y="149.136878" style="stroke: #000000; stroke-width: 0.8"/>
      </g>
     </g>
     <g id="text_8">
      <!-- 2 k -->
      <g transform="translate(20.878125 152.936097) scale(0.1 -0.1)">
       <defs>
        <path id="DejaVuSans-20" transform="scale(0.015625)"/>
        <path id="DejaVuSans-6b" d="M 581 4863 
L 1159 4863 
L 1159 1991 
L 2875 3500 
L 3609 3500 
L 1753 1863 
L 3688 0 
L 2938 0 
L 1159 1709 
L 1159 0 
L 581 0 
L 581 4863 
z
" transform="scale(0.015625)"/>
       </defs>
       <use xlink:href="#DejaVuSans-32"/>
       <use xlink:href="#DejaVuSans-20" x="63.623047"/>
       <use xlink:href="#DejaVuSans-6b" x="95.410156"/>
      </g>
     </g>
    </g>
    <g id="ytick_3">
     <g id="line2d_9">
      <g>
       <use xlink:href="#m164824041c" x="43.209375" y="109.635631" style="stroke: #000000; stroke-width: 0.8"/>
      </g>
     </g>
     <g id="text_9">
      <!-- 4 k -->
      <g transform="translate(20.878125 113.43485) scale(0.1 -0.1)">
       <defs>
        <path id="DejaVuSans-34" d="M 2419 4116 
L 825 1625 
L 2419 1625 
L 2419 4116 
z
M 2253 4666 
L 3047 4666 
L 3047 1625 
L 3713 1625 
L 3713 1100 
L 3047 1100 
L 3047 0 
L 2419 0 
L 2419 1100 
L 313 1100 
L 313 1709 
L 2253 4666 
z
" transform="scale(0.015625)"/>
       </defs>
       <use xlink:href="#DejaVuSans-34"/>
       <use xlink:href="#DejaVuSans-20" x="63.623047"/>
       <use xlink:href="#DejaVuSans-6b" x="95.410156"/>
      </g>
     </g>
    </g>
    <g id="ytick_4">
     <g id="line2d_10">
      <g>
       <use xlink:href="#m164824041c" x="43.209375" y="70.134384" style="stroke: #000000; stroke-width: 0.8"/>
      </g>
     </g>
     <g id="text_10">
      <!-- 6 k -->
      <g transform="translate(20.878125 73.933603) scale(0.1 -0.1)">
       <use xlink:href="#DejaVuSans-36"/>
       <use xlink:href="#DejaVuSans-20" x="63.623047"/>
       <use xlink:href="#DejaVuSans-6b" x="95.410156"/>
      </g>
     </g>
    </g>
    <g id="ytick_5">
     <g id="line2d_11">
      <g>
       <use xlink:href="#m164824041c" x="43.209375" y="30.633137" style="stroke: #000000; stroke-width: 0.8"/>
      </g>
     </g>
     <g id="text_11">
      <!-- 8 k -->
      <g transform="translate(20.878125 34.432356) scale(0.1 -0.1)">
       <use xlink:href="#DejaVuSans-38"/>
       <use xlink:href="#DejaVuSans-20" x="63.623047"/>
       <use xlink:href="#DejaVuSans-6b" x="95.410156"/>
      </g>
     </g>
    </g>
    <g id="text_12">
     <!-- tagged questions -->
     <g transform="translate(14.798438 148.896875) rotate(-90) scale(0.1 -0.1)">
      <defs>
       <path id="DejaVuSans-74" d="M 1172 4494 
L 1172 3500 
L 2356 3500 
L 2356 3053 
L 1172 3053 
L 1172 1153 
Q 1172 725 1289 603 
Q 1406 481 1766 481 
L 2356 481 
L 2356 0 
L 1766 0 
Q 1100 0 847 248 
Q 594 497 594 1153 
L 594 3053 
L 172 3053 
L 172 3500 
L 594 3500 
L 594 4494 
L 1172 4494 
z
" transform="scale(0.015625)"/>
       <path id="DejaVuSans-61" d="M 2194 1759 
Q 1497 1759 1228 1600 
Q 959 1441 959 1056 
Q 959 750 1161 570 
Q 1363 391 1709 391 
Q 2188 391 2477 730 
Q 2766 1069 2766 1631 
L 2766 1759 
L 2194 1759 
z
M 3341 1997 
L 3341 0 
L 2766 0 
L 2766 531 
Q 2569 213 2275 61 
Q 1981 -91 1556 -91 
Q 1019 -91 701 211 
Q 384 513 384 1019 
Q 384 1609 779 1909 
Q 1175 2209 1959 2209 
L 2766 2209 
L 2766 2266 
Q 2766 2663 2505 2880 
Q 2244 3097 1772 3097 
Q 1472 3097 1187 3025 
Q 903 2953 641 2809 
L 641 3341 
Q 956 3463 1253 3523 
Q 1550 3584 1831 3584 
Q 2591 3584 2966 3190 
Q 3341 2797 3341 1997 
z
" transform="scale(0.015625)"/>
       <path id="DejaVuSans-67" d="M 2906 1791 
Q 2906 2416 2648 2759 
Q 2391 3103 1925 3103 
Q 1463 3103 1205 2759 
Q 947 2416 947 1791 
Q 947 1169 1205 825 
Q 1463 481 1925 481 
Q 2391 481 2648 825 
Q 2906 1169 2906 1791 
z
M 3481 434 
Q 3481 -459 3084 -895 
Q 2688 -1331 1869 -1331 
Q 1566 -1331 1297 -1286 
Q 1028 -1241 775 -1147 
L 775 -588 
Q 1028 -725 1275 -790 
Q 1522 -856 1778 -856 
Q 2344 -856 2625 -561 
Q 2906 -266 2906 331 
L 2906 616 
Q 2728 306 2450 153 
Q 2172 0 1784 0 
Q 1141 0 747 490 
Q 353 981 353 1791 
Q 353 2603 747 3093 
Q 1141 3584 1784 3584 
Q 2172 3584 2450 3431 
Q 2728 3278 2906 2969 
L 2906 3500 
L 3481 3500 
L 3481 434 
z
" transform="scale(0.015625)"/>
       <path id="DejaVuSans-65" d="M 3597 1894 
L 3597 1613 
L 953 1613 
Q 991 1019 1311 708 
Q 1631 397 2203 397 
Q 2534 397 2845 478 
Q 3156 559 3463 722 
L 3463 178 
Q 3153 47 2828 -22 
Q 2503 -91 2169 -91 
Q 1331 -91 842 396 
Q 353 884 353 1716 
Q 353 2575 817 3079 
Q 1281 3584 2069 3584 
Q 2775 3584 3186 3129 
Q 3597 2675 3597 1894 
z
M 3022 2063 
Q 3016 2534 2758 2815 
Q 2500 3097 2075 3097 
Q 1594 3097 1305 2825 
Q 1016 2553 972 2059 
L 3022 2063 
z
" transform="scale(0.015625)"/>
       <path id="DejaVuSans-64" d="M 2906 2969 
L 2906 4863 
L 3481 4863 
L 3481 0 
L 2906 0 
L 2906 525 
Q 2725 213 2448 61 
Q 2172 -91 1784 -91 
Q 1150 -91 751 415 
Q 353 922 353 1747 
Q 353 2572 751 3078 
Q 1150 3584 1784 3584 
Q 2172 3584 2448 3432 
Q 2725 3281 2906 2969 
z
M 947 1747 
Q 947 1113 1208 752 
Q 1469 391 1925 391 
Q 2381 391 2643 752 
Q 2906 1113 2906 1747 
Q 2906 2381 2643 2742 
Q 2381 3103 1925 3103 
Q 1469 3103 1208 2742 
Q 947 2381 947 1747 
z
" transform="scale(0.015625)"/>
       <path id="DejaVuSans-71" d="M 947 1747 
Q 947 1113 1208 752 
Q 1469 391 1925 391 
Q 2381 391 2643 752 
Q 2906 1113 2906 1747 
Q 2906 2381 2643 2742 
Q 2381 3103 1925 3103 
Q 1469 3103 1208 2742 
Q 947 2381 947 1747 
z
M 2906 525 
Q 2725 213 2448 61 
Q 2172 -91 1784 -91 
Q 1150 -91 751 415 
Q 353 922 353 1747 
Q 353 2572 751 3078 
Q 1150 3584 1784 3584 
Q 2172 3584 2448 3432 
Q 2725 3281 2906 2969 
L 2906 3500 
L 3481 3500 
L 3481 -1331 
L 2906 -1331 
L 2906 525 
z
" transform="scale(0.015625)"/>
       <path id="DejaVuSans-75" d="M 544 1381 
L 544 3500 
L 1119 3500 
L 1119 1403 
Q 1119 906 1312 657 
Q 1506 409 1894 409 
Q 2359 409 2629 706 
Q 2900 1003 2900 1516 
L 2900 3500 
L 3475 3500 
L 3475 0 
L 2900 0 
L 2900 538 
Q 2691 219 2414 64 
Q 2138 -91 1772 -91 
Q 1169 -91 856 284 
Q 544 659 544 1381 
z
M 1991 3584 
L 1991 3584 
z
" transform="scale(0.015625)"/>
       <path id="DejaVuSans-73" d="M 2834 3397 
L 2834 2853 
Q 2591 2978 2328 3040 
Q 2066 3103 1784 3103 
Q 1356 3103 1142 2972 
Q 928 2841 928 2578 
Q 928 2378 1081 2264 
Q 1234 2150 1697 2047 
L 1894 2003 
Q 2506 1872 2764 1633 
Q 3022 1394 3022 966 
Q 3022 478 2636 193 
Q 2250 -91 1575 -91 
Q 1294 -91 989 -36 
Q 684 19 347 128 
L 347 722 
Q 666 556 975 473 
Q 1284 391 1588 391 
Q 1994 391 2212 530 
Q 2431 669 2431 922 
Q 2431 1156 2273 1281 
Q 2116 1406 1581 1522 
L 1381 1569 
Q 847 1681 609 1914 
Q 372 2147 372 2553 
Q 372 3047 722 3315 
Q 1072 3584 1716 3584 
Q 2034 3584 2315 3537 
Q 2597 3491 2834 3397 
z
" transform="scale(0.015625)"/>
       <path id="DejaVuSans-69" d="M 603 3500 
L 1178 3500 
L 1178 0 
L 603 0 
L 603 3500 
z
M 603 4863 
L 1178 4863 
L 1178 4134 
L 603 4134 
L 603 4863 
z
" transform="scale(0.015625)"/>
       <path id="DejaVuSans-6f" d="M 1959 3097 
Q 1497 3097 1228 2736 
Q 959 2375 959 1747 
Q 959 1119 1226 758 
Q 1494 397 1959 397 
Q 2419 397 2687 759 
Q 2956 1122 2956 1747 
Q 2956 2369 2687 2733 
Q 2419 3097 1959 3097 
z
M 1959 3584 
Q 2709 3584 3137 3096 
Q 3566 2609 3566 1747 
Q 3566 888 3137 398 
Q 2709 -91 1959 -91 
Q 1206 -91 779 398 
Q 353 888 353 1747 
Q 353 2609 779 3096 
Q 1206 3584 1959 3584 
z
" transform="scale(0.015625)"/>
       <path id="DejaVuSans-6e" d="M 3513 2113 
L 3513 0 
L 2938 0 
L 2938 2094 
Q 2938 2591 2744 2837 
Q 2550 3084 2163 3084 
Q 1697 3084 1428 2787 
Q 1159 2491 1159 1978 
L 1159 0 
L 581 0 
L 581 3500 
L 1159 3500 
L 1159 2956 
Q 1366 3272 1645 3428 
Q 1925 3584 2291 3584 
Q 2894 3584 3203 3211 
Q 3513 2838 3513 2113 
z
" transform="scale(0.015625)"/>
      </defs>
      <use xlink:href="#DejaVuSans-74"/>
      <use xlink:href="#DejaVuSans-61" x="39.208984"/>
      <use xlink:href="#DejaVuSans-67" x="100.488281"/>
      <use xlink:href="#DejaVuSans-67" x="163.964844"/>
      <use xlink:href="#DejaVuSans-65" x="227.441406"/>
      <use xlink:href="#DejaVuSans-64" x="288.964844"/>
      <use xlink:href="#DejaVuSans-20" x="352.441406"/>
      <use xlink:href="#DejaVuSans-71" x="384.228516"/>
      <use xlink:href="#DejaVuSans-75" x="447.705078"/>
      <use xlink:href="#DejaVuSans-65" x="511.083984"/>
      <use xlink:href="#DejaVuSans-73" x="572.607422"/>
      <use xlink:href="#DejaVuSans-74" x="624.707031"/>
      <use xlink:href="#DejaVuSans-69" x="663.916016"/>
      <use xlink:href="#DejaVuSans-6f" x="691.699219"/>
      <use xlink:href="#DejaVuSans-6e" x="752.880859"/>
      <use xlink:href="#DejaVuSans-73" x="816.259766"/>
     </g>
    </g>
   </g>
   <g id="patch_3">
    <path d="M 43.209375 188.638125 
L 43.209375 22.318125 
" style="fill: none; stroke: #000000; stroke-width: 0.8; stroke-linejoin: miter; stroke-linecap: square"/>
   </g>
   <g id="patch_4">
    <path d="M 43.209375 188.638125 
L 712.809375 188.638125 
" style="fill: none; stroke: #000000; stroke-width: 0.8; stroke-linejoin: miter; stroke-linecap: square"/>
   </g>
   <g id="text_13">
    <!--  pandas: 4,204 -->
    <g transform="translate(682.373011 150.168074) scale(0.1 -0.1)">
     <defs>
      <path id="DejaVuSans-70" d="M 1159 525 
L 1159 -1331 
L 581 -1331 
L 581 3500 
L 1159 3500 
L 1159 2969 
Q 1341 3281 1617 3432 
Q 1894 3584 2278 3584 
Q 2916 3584 3314 3078 
Q 3713 2572 3713 1747 
Q 3713 922 3314 415 
Q 2916 -91 2278 -91 
Q 1894 -91 1617 61 
Q 1341 213 1159 525 
z
M 3116 1747 
Q 3116 2381 2855 2742 
Q 2594 3103 2138 3103 
Q 1681 3103 1420 2742 
Q 1159 2381 1159 1747 
Q 1159 1113 1420 752 
Q 1681 391 2138 391 
Q 2594 391 2855 752 
Q 3116 1113 3116 1747 
z
" transform="scale(0.015625)"/>
      <path id="DejaVuSans-3a" d="M 750 794 
L 1409 794 
L 1409 0 
L 750 0 
L 750 794 
z
M 750 3309 
L 1409 3309 
L 1409 2516 
L 750 2516 
L 750 3309 
z
" transform="scale(0.015625)"/>
      <path id="DejaVuSans-2c" d="M 750 794 
L 1409 794 
L 1409 256 
L 897 -744 
L 494 -744 
L 750 256 
L 750 794 
z
" transform="scale(0.015625)"/>
     </defs>
     <use xlink:href="#DejaVuSans-20"/>
     <use xlink:href="#DejaVuSans-70" x="31.787109"/>
     <use xlink:href="#DejaVuSans-61" x="95.263672"/>
     <use xlink:href="#DejaVuSans-6e" x="156.542969"/>
     <use xlink:href="#DejaVuSans-64" x="219.921875"/>
     <use xlink:href="#DejaVuSans-61" x="283.398438"/>
     <use xlink:href="#DejaVuSans-73" x="344.677734"/>
     <use xlink:href="#DejaVuSans-3a" x="396.777344"/>
     <use xlink:href="#DejaVuSans-20" x="430.46875"/>
     <use xlink:href="#DejaVuSans-34" x="462.255859"/>
     <use xlink:href="#DejaVuSans-2c" x="525.878906"/>
     <use xlink:href="#DejaVuSans-32" x="557.666016"/>
     <use xlink:href="#DejaVuSans-30" x="621.289062"/>
     <use xlink:href="#DejaVuSans-34" x="684.912109"/>
    </g>
   </g>
   <g id="text_14">
    <!--  numpy: 1,256 -->
    <g transform="translate(682.373011 98.125181) scale(0.1 -0.1)">
     <defs>
      <path id="DejaVuSans-6d" d="M 3328 2828 
Q 3544 3216 3844 3400 
Q 4144 3584 4550 3584 
Q 5097 3584 5394 3201 
Q 5691 2819 5691 2113 
L 5691 0 
L 5113 0 
L 5113 2094 
Q 5113 2597 4934 2840 
Q 4756 3084 4391 3084 
Q 3944 3084 3684 2787 
Q 3425 2491 3425 1978 
L 3425 0 
L 2847 0 
L 2847 2094 
Q 2847 2600 2669 2842 
Q 2491 3084 2119 3084 
Q 1678 3084 1418 2786 
Q 1159 2488 1159 1978 
L 1159 0 
L 581 0 
L 581 3500 
L 1159 3500 
L 1159 2956 
Q 1356 3278 1631 3431 
Q 1906 3584 2284 3584 
Q 2666 3584 2933 3390 
Q 3200 3197 3328 2828 
z
" transform="scale(0.015625)"/>
      <path id="DejaVuSans-79" d="M 2059 -325 
Q 1816 -950 1584 -1140 
Q 1353 -1331 966 -1331 
L 506 -1331 
L 506 -850 
L 844 -850 
Q 1081 -850 1212 -737 
Q 1344 -625 1503 -206 
L 1606 56 
L 191 3500 
L 800 3500 
L 1894 763 
L 2988 3500 
L 3597 3500 
L 2059 -325 
z
" transform="scale(0.015625)"/>
      <path id="DejaVuSans-35" d="M 691 4666 
L 3169 4666 
L 3169 4134 
L 1269 4134 
L 1269 2991 
Q 1406 3038 1543 3061 
Q 1681 3084 1819 3084 
Q 2600 3084 3056 2656 
Q 3513 2228 3513 1497 
Q 3513 744 3044 326 
Q 2575 -91 1722 -91 
Q 1428 -91 1123 -41 
Q 819 9 494 109 
L 494 744 
Q 775 591 1075 516 
Q 1375 441 1709 441 
Q 2250 441 2565 725 
Q 2881 1009 2881 1497 
Q 2881 1984 2565 2268 
Q 2250 2553 1709 2553 
Q 1456 2553 1204 2497 
Q 953 2441 691 2322 
L 691 4666 
z
" transform="scale(0.015625)"/>
     </defs>
     <use xlink:href="#DejaVuSans-20"/>
     <use xlink:href="#DejaVuSans-6e" x="31.787109"/>
     <use xlink:href="#DejaVuSans-75" x="95.166016"/>
     <use xlink:href="#DejaVuSans-6d" x="158.544922"/>
     <use xlink:href="#DejaVuSans-70" x="255.957031"/>
     <use xlink:href="#DejaVuSans-79" x="319.433594"/>
     <use xlink:href="#DejaVuSans-3a" x="371.363281"/>
     <use xlink:href="#DejaVuSans-20" x="405.054688"/>
     <use xlink:href="#DejaVuSans-31" x="436.841797"/>
     <use xlink:href="#DejaVuSans-2c" x="500.464844"/>
     <use xlink:href="#DejaVuSans-32" x="532.251953"/>
     <use xlink:href="#DejaVuSans-35" x="595.875"/>
     <use xlink:href="#DejaVuSans-36" x="659.498047"/>
    </g>
   </g>
   <g id="text_15">
    <!--  matplotlib: 869 -->
    <g transform="translate(682.373011 79.194208) scale(0.1 -0.1)">
     <defs>
      <path id="DejaVuSans-6c" d="M 603 4863 
L 1178 4863 
L 1178 0 
L 603 0 
L 603 4863 
z
" transform="scale(0.015625)"/>
      <path id="DejaVuSans-62" d="M 3116 1747 
Q 3116 2381 2855 2742 
Q 2594 3103 2138 3103 
Q 1681 3103 1420 2742 
Q 1159 2381 1159 1747 
Q 1159 1113 1420 752 
Q 1681 391 2138 391 
Q 2594 391 2855 752 
Q 3116 1113 3116 1747 
z
M 1159 2969 
Q 1341 3281 1617 3432 
Q 1894 3584 2278 3584 
Q 2916 3584 3314 3078 
Q 3713 2572 3713 1747 
Q 3713 922 3314 415 
Q 2916 -91 2278 -91 
Q 1894 -91 1617 61 
Q 1341 213 1159 525 
L 1159 0 
L 581 0 
L 581 4863 
L 1159 4863 
L 1159 2969 
z
" transform="scale(0.015625)"/>
     </defs>
     <use xlink:href="#DejaVuSans-20"/>
     <use xlink:href="#DejaVuSans-6d" x="31.787109"/>
     <use xlink:href="#DejaVuSans-61" x="129.199219"/>
     <use xlink:href="#DejaVuSans-74" x="190.478516"/>
     <use xlink:href="#DejaVuSans-70" x="229.6875"/>
     <use xlink:href="#DejaVuSans-6c" x="293.164062"/>
     <use xlink:href="#DejaVuSans-6f" x="320.947266"/>
     <use xlink:href="#DejaVuSans-74" x="382.128906"/>
     <use xlink:href="#DejaVuSans-6c" x="421.337891"/>
     <use xlink:href="#DejaVuSans-69" x="449.121094"/>
     <use xlink:href="#DejaVuSans-62" x="476.904297"/>
     <use xlink:href="#DejaVuSans-3a" x="540.380859"/>
     <use xlink:href="#DejaVuSans-20" x="574.072266"/>
     <use xlink:href="#DejaVuSans-38" x="605.859375"/>
     <use xlink:href="#DejaVuSans-36" x="669.482422"/>
     <use xlink:href="#DejaVuSans-39" x="733.105469"/>
    </g>
   </g>
   <g id="patch_5">
    <path d="M 699.53588 60.140798 
Q 691.890945 63.03511 685.291618 65.533563 
" style="fill: none; stroke: #000000; stroke-linecap: round"/>
    <path d="M 689.740632 65.987735 
L 685.291618 65.533563 
L 688.324365 62.246855 
" style="fill: none; stroke: #000000; stroke-linecap: round"/>
   </g>
   <g id="text_16">
    <!--  seaborn: 172 -->
    <g transform="translate(684.953458 55.351256) scale(0.1 -0.1)">
     <defs>
      <path id="DejaVuSans-72" d="M 2631 2963 
Q 2534 3019 2420 3045 
Q 2306 3072 2169 3072 
Q 1681 3072 1420 2755 
Q 1159 2438 1159 1844 
L 1159 0 
L 581 0 
L 581 3500 
L 1159 3500 
L 1159 2956 
Q 1341 3275 1631 3429 
Q 1922 3584 2338 3584 
Q 2397 3584 2469 3576 
Q 2541 3569 2628 3553 
L 2631 2963 
z
" transform="scale(0.015625)"/>
      <path id="DejaVuSans-37" d="M 525 4666 
L 3525 4666 
L 3525 4397 
L 1831 0 
L 1172 0 
L 2766 4134 
L 525 4134 
L 525 4666 
z
" transform="scale(0.015625)"/>
     </defs>
     <use xlink:href="#DejaVuSans-20"/>
     <use xlink:href="#DejaVuSans-73" x="31.787109"/>
     <use xlink:href="#DejaVuSans-65" x="83.886719"/>
     <use xlink:href="#DejaVuSans-61" x="145.410156"/>
     <use xlink:href="#DejaVuSans-62" x="206.689453"/>
     <use xlink:href="#DejaVuSans-6f" x="270.166016"/>
     <use xlink:href="#DejaVuSans-72" x="331.347656"/>
     <use xlink:href="#DejaVuSans-6e" x="370.710938"/>
     <use xlink:href="#DejaVuSans-3a" x="434.089844"/>
     <use xlink:href="#DejaVuSans-20" x="467.78125"/>
     <use xlink:href="#DejaVuSans-31" x="499.568359"/>
     <use xlink:href="#DejaVuSans-37" x="563.191406"/>
     <use xlink:href="#DejaVuSans-32" x="626.814453"/>
    </g>
   </g>
   <g id="text_17">
    <!-- Stack Overflow Questions per Month -->
    <g transform="translate(268.245938 16.318125) scale(0.12 -0.12)">
     <defs>
      <path id="DejaVuSans-53" d="M 3425 4513 
L 3425 3897 
Q 3066 4069 2747 4153 
Q 2428 4238 2131 4238 
Q 1616 4238 1336 4038 
Q 1056 3838 1056 3469 
Q 1056 3159 1242 3001 
Q 1428 2844 1947 2747 
L 2328 2669 
Q 3034 2534 3370 2195 
Q 3706 1856 3706 1288 
Q 3706 609 3251 259 
Q 2797 -91 1919 -91 
Q 1588 -91 1214 -16 
Q 841 59 441 206 
L 441 856 
Q 825 641 1194 531 
Q 1563 422 1919 422 
Q 2459 422 2753 634 
Q 3047 847 3047 1241 
Q 3047 1584 2836 1778 
Q 2625 1972 2144 2069 
L 1759 2144 
Q 1053 2284 737 2584 
Q 422 2884 422 3419 
Q 422 4038 858 4394 
Q 1294 4750 2059 4750 
Q 2388 4750 2728 4690 
Q 3069 4631 3425 4513 
z
" transform="scale(0.015625)"/>
      <path id="DejaVuSans-63" d="M 3122 3366 
L 3122 2828 
Q 2878 2963 2633 3030 
Q 2388 3097 2138 3097 
Q 1578 3097 1268 2742 
Q 959 2388 959 1747 
Q 959 1106 1268 751 
Q 1578 397 2138 397 
Q 2388 397 2633 464 
Q 2878 531 3122 666 
L 3122 134 
Q 2881 22 2623 -34 
Q 2366 -91 2075 -91 
Q 1284 -91 818 406 
Q 353 903 353 1747 
Q 353 2603 823 3093 
Q 1294 3584 2113 3584 
Q 2378 3584 2631 3529 
Q 2884 3475 3122 3366 
z
" transform="scale(0.015625)"/>
      <path id="DejaVuSans-4f" d="M 2522 4238 
Q 1834 4238 1429 3725 
Q 1025 3213 1025 2328 
Q 1025 1447 1429 934 
Q 1834 422 2522 422 
Q 3209 422 3611 934 
Q 4013 1447 4013 2328 
Q 4013 3213 3611 3725 
Q 3209 4238 2522 4238 
z
M 2522 4750 
Q 3503 4750 4090 4092 
Q 4678 3434 4678 2328 
Q 4678 1225 4090 567 
Q 3503 -91 2522 -91 
Q 1538 -91 948 565 
Q 359 1222 359 2328 
Q 359 3434 948 4092 
Q 1538 4750 2522 4750 
z
" transform="scale(0.015625)"/>
      <path id="DejaVuSans-76" d="M 191 3500 
L 800 3500 
L 1894 563 
L 2988 3500 
L 3597 3500 
L 2284 0 
L 1503 0 
L 191 3500 
z
" transform="scale(0.015625)"/>
      <path id="DejaVuSans-66" d="M 2375 4863 
L 2375 4384 
L 1825 4384 
Q 1516 4384 1395 4259 
Q 1275 4134 1275 3809 
L 1275 3500 
L 2222 3500 
L 2222 3053 
L 1275 3053 
L 1275 0 
L 697 0 
L 697 3053 
L 147 3053 
L 147 3500 
L 697 3500 
L 697 3744 
Q 697 4328 969 4595 
Q 1241 4863 1831 4863 
L 2375 4863 
z
" transform="scale(0.015625)"/>
      <path id="DejaVuSans-77" d="M 269 3500 
L 844 3500 
L 1563 769 
L 2278 3500 
L 2956 3500 
L 3675 769 
L 4391 3500 
L 4966 3500 
L 4050 0 
L 3372 0 
L 2619 2869 
L 1863 0 
L 1184 0 
L 269 3500 
z
" transform="scale(0.015625)"/>
      <path id="DejaVuSans-51" d="M 2522 4238 
Q 1834 4238 1429 3725 
Q 1025 3213 1025 2328 
Q 1025 1447 1429 934 
Q 1834 422 2522 422 
Q 3209 422 3611 934 
Q 4013 1447 4013 2328 
Q 4013 3213 3611 3725 
Q 3209 4238 2522 4238 
z
M 3406 84 
L 4238 -825 
L 3475 -825 
L 2784 -78 
Q 2681 -84 2626 -87 
Q 2572 -91 2522 -91 
Q 1538 -91 948 567 
Q 359 1225 359 2328 
Q 359 3434 948 4092 
Q 1538 4750 2522 4750 
Q 3503 4750 4090 4092 
Q 4678 3434 4678 2328 
Q 4678 1516 4351 937 
Q 4025 359 3406 84 
z
" transform="scale(0.015625)"/>
      <path id="DejaVuSans-4d" d="M 628 4666 
L 1569 4666 
L 2759 1491 
L 3956 4666 
L 4897 4666 
L 4897 0 
L 4281 0 
L 4281 4097 
L 3078 897 
L 2444 897 
L 1241 4097 
L 1241 0 
L 628 0 
L 628 4666 
z
" transform="scale(0.015625)"/>
      <path id="DejaVuSans-68" d="M 3513 2113 
L 3513 0 
L 2938 0 
L 2938 2094 
Q 2938 2591 2744 2837 
Q 2550 3084 2163 3084 
Q 1697 3084 1428 2787 
Q 1159 2491 1159 1978 
L 1159 0 
L 581 0 
L 581 4863 
L 1159 4863 
L 1159 2956 
Q 1366 3272 1645 3428 
Q 1925 3584 2291 3584 
Q 2894 3584 3203 3211 
Q 3513 2838 3513 2113 
z
" transform="scale(0.015625)"/>
     </defs>
     <use xlink:href="#DejaVuSans-53"/>
     <use xlink:href="#DejaVuSans-74" x="63.476562"/>
     <use xlink:href="#DejaVuSans-61" x="102.685547"/>
     <use xlink:href="#DejaVuSans-63" x="163.964844"/>
     <use xlink:href="#DejaVuSans-6b" x="218.945312"/>
     <use xlink:href="#DejaVuSans-20" x="276.855469"/>
     <use xlink:href="#DejaVuSans-4f" x="308.642578"/>
     <use xlink:href="#DejaVuSans-76" x="387.353516"/>
     <use xlink:href="#DejaVuSans-65" x="446.533203"/>
     <use xlink:href="#DejaVuSans-72" x="508.056641"/>
     <use xlink:href="#DejaVuSans-66" x="549.169922"/>
     <use xlink:href="#DejaVuSans-6c" x="584.375"/>
     <use xlink:href="#DejaVuSans-6f" x="612.158203"/>
     <use xlink:href="#DejaVuSans-77" x="673.339844"/>
     <use xlink:href="#DejaVuSans-20" x="755.126953"/>
     <use xlink:href="#DejaVuSans-51" x="786.914062"/>
     <use xlink:href="#DejaVuSans-75" x="865.625"/>
     <use xlink:href="#DejaVuSans-65" x="929.003906"/>
     <use xlink:href="#DejaVuSans-73" x="990.527344"/>
     <use xlink:href="#DejaVuSans-74" x="1042.626953"/>
     <use xlink:href="#DejaVuSans-69" x="1081.835938"/>
     <use xlink:href="#DejaVuSans-6f" x="1109.619141"/>
     <use xlink:href="#DejaVuSans-6e" x="1170.800781"/>
     <use xlink:href="#DejaVuSans-73" x="1234.179688"/>
     <use xlink:href="#DejaVuSans-20" x="1286.279297"/>
     <use xlink:href="#DejaVuSans-70" x="1318.066406"/>
     <use xlink:href="#DejaVuSans-65" x="1381.542969"/>
     <use xlink:href="#DejaVuSans-72" x="1443.066406"/>
     <use xlink:href="#DejaVuSans-20" x="1484.179688"/>
     <use xlink:href="#DejaVuSans-4d" x="1515.966797"/>
     <use xlink:href="#DejaVuSans-6f" x="1602.246094"/>
     <use xlink:href="#DejaVuSans-6e" x="1663.427734"/>
     <use xlink:href="#DejaVuSans-74" x="1726.806641"/>
     <use xlink:href="#DejaVuSans-68" x="1766.015625"/>
    </g>
   </g>
  </g>
  <g id="axes_2">
   <g id="patch_6">
    <path d="M 108.009375 82.798125 
L 280.809375 82.798125 
L 280.809375 39.598125 
L 108.009375 39.598125 
z
" style="fill: #ffffff"/>
   </g>
   <g id="patch_7">
    <path d="M 108.009375 41.561761 
L 272.580804 41.561761 
L 272.580804 49.829704 
L 108.009375 49.829704 
z
" clip-path="url(#pb6a5b6e6fc)" style="fill: #1f77b4"/>
   </g>
   <g id="patch_8">
    <path d="M 108.009375 51.89669 
L 179.995591 51.89669 
L 179.995591 60.164632 
L 108.009375 60.164632 
z
" clip-path="url(#pb6a5b6e6fc)" style="fill: #ff7f0e"/>
   </g>
   <g id="patch_9">
    <path d="M 108.009375 62.231618 
L 154.471249 62.231618 
L 154.471249 70.49956 
L 108.009375 70.49956 
z
" clip-path="url(#pb6a5b6e6fc)" style="fill: #2ca02c"/>
   </g>
   <g id="patch_10">
    <path d="M 108.009375 72.566546 
L 113.672711 72.566546 
L 113.672711 80.834489 
L 108.009375 80.834489 
z
" clip-path="url(#pb6a5b6e6fc)" style="fill: #d62728"/>
   </g>
   <g id="matplotlib.axis_3">
    <g id="xtick_7">
     <g id="line2d_12">
      <g>
       <use xlink:href="#mf2dbf7c837" x="108.009375" y="82.798125" style="stroke: #000000; stroke-width: 0.8"/>
      </g>
     </g>
     <g id="text_18">
      <!-- 0 -->
      <g transform="translate(104.828125 97.396563) scale(0.1 -0.1)">
       <use xlink:href="#DejaVuSans-30"/>
      </g>
     </g>
    </g>
    <g id="xtick_8">
     <g id="line2d_13">
      <g>
       <use xlink:href="#mf2dbf7c837" x="146.566947" y="82.798125" style="stroke: #000000; stroke-width: 0.8"/>
      </g>
     </g>
     <g id="text_19">
      <!-- 50 k -->
      <g transform="translate(135.720072 97.396563) scale(0.1 -0.1)">
       <use xlink:href="#DejaVuSans-35"/>
       <use xlink:href="#DejaVuSans-30" x="63.623047"/>
       <use xlink:href="#DejaVuSans-20" x="127.246094"/>
       <use xlink:href="#DejaVuSans-6b" x="159.033203"/>
      </g>
     </g>
    </g>
    <g id="xtick_9">
     <g id="line2d_14">
      <g>
       <use xlink:href="#mf2dbf7c837" x="185.124519" y="82.798125" style="stroke: #000000; stroke-width: 0.8"/>
      </g>
     </g>
     <g id="text_20">
      <!-- 100 k -->
      <g transform="translate(171.096394 97.396563) scale(0.1 -0.1)">
       <use xlink:href="#DejaVuSans-31"/>
       <use xlink:href="#DejaVuSans-30" x="63.623047"/>
       <use xlink:href="#DejaVuSans-30" x="127.246094"/>
       <use xlink:href="#DejaVuSans-20" x="190.869141"/>
       <use xlink:href="#DejaVuSans-6b" x="222.65625"/>
      </g>
     </g>
    </g>
    <g id="xtick_10">
     <g id="line2d_15">
      <g>
       <use xlink:href="#mf2dbf7c837" x="223.682091" y="82.798125" style="stroke: #000000; stroke-width: 0.8"/>
      </g>
     </g>
     <g id="text_21">
      <!-- 150 k -->
      <g transform="translate(209.653966 97.396563) scale(0.1 -0.1)">
       <use xlink:href="#DejaVuSans-31"/>
       <use xlink:href="#DejaVuSans-35" x="63.623047"/>
       <use xlink:href="#DejaVuSans-30" x="127.246094"/>
       <use xlink:href="#DejaVuSans-20" x="190.869141"/>
       <use xlink:href="#DejaVuSans-6b" x="222.65625"/>
      </g>
     </g>
    </g>
    <g id="xtick_11">
     <g id="line2d_16">
      <g>
       <use xlink:href="#mf2dbf7c837" x="262.239663" y="82.798125" style="stroke: #000000; stroke-width: 0.8"/>
      </g>
     </g>
     <g id="text_22">
      <!-- 200 k -->
      <g transform="translate(248.211538 97.396563) scale(0.1 -0.1)">
       <use xlink:href="#DejaVuSans-32"/>
       <use xlink:href="#DejaVuSans-30" x="63.623047"/>
       <use xlink:href="#DejaVuSans-30" x="127.246094"/>
       <use xlink:href="#DejaVuSans-20" x="190.869141"/>
       <use xlink:href="#DejaVuSans-6b" x="222.65625"/>
      </g>
     </g>
    </g>
    <g id="text_23">
     <!-- total questions -->
     <g transform="translate(157.18125 111.074688) scale(0.1 -0.1)">
      <use xlink:href="#DejaVuSans-74"/>
      <use xlink:href="#DejaVuSans-6f" x="39.208984"/>
      <use xlink:href="#DejaVuSans-74" x="100.390625"/>
      <use xlink:href="#DejaVuSans-61" x="139.599609"/>
      <use xlink:href="#DejaVuSans-6c" x="200.878906"/>
      <use xlink:href="#DejaVuSans-20" x="228.662109"/>
      <use xlink:href="#DejaVuSans-71" x="260.449219"/>
      <use xlink:href="#DejaVuSans-75" x="323.925781"/>
      <use xlink:href="#DejaVuSans-65" x="387.304688"/>
      <use xlink:href="#DejaVuSans-73" x="448.828125"/>
      <use xlink:href="#DejaVuSans-74" x="500.927734"/>
      <use xlink:href="#DejaVuSans-69" x="540.136719"/>
      <use xlink:href="#DejaVuSans-6f" x="567.919922"/>
      <use xlink:href="#DejaVuSans-6e" x="629.101562"/>
      <use xlink:href="#DejaVuSans-73" x="692.480469"/>
     </g>
    </g>
   </g>
   <g id="matplotlib.axis_4">
    <g id="ytick_6">
     <g id="line2d_17">
      <g>
       <use xlink:href="#m164824041c" x="108.009375" y="45.695733" style="stroke: #000000; stroke-width: 0.8"/>
      </g>
     </g>
     <g id="text_24">
      <!-- pandas -->
      <g transform="translate(64.509375 49.494951) scale(0.1 -0.1)">
       <use xlink:href="#DejaVuSans-70"/>
       <use xlink:href="#DejaVuSans-61" x="63.476562"/>
       <use xlink:href="#DejaVuSans-6e" x="124.755859"/>
       <use xlink:href="#DejaVuSans-64" x="188.134766"/>
       <use xlink:href="#DejaVuSans-61" x="251.611328"/>
       <use xlink:href="#DejaVuSans-73" x="312.890625"/>
      </g>
     </g>
    </g>
    <g id="ytick_7">
     <g id="line2d_18">
      <g>
       <use xlink:href="#m164824041c" x="108.009375" y="56.030661" style="stroke: #000000; stroke-width: 0.8"/>
      </g>
     </g>
     <g id="text_25">
      <!-- numpy -->
      <g transform="translate(66.326563 59.82988) scale(0.1 -0.1)">
       <use xlink:href="#DejaVuSans-6e"/>
       <use xlink:href="#DejaVuSans-75" x="63.378906"/>
       <use xlink:href="#DejaVuSans-6d" x="126.757812"/>
       <use xlink:href="#DejaVuSans-70" x="224.169922"/>
       <use xlink:href="#DejaVuSans-79" x="287.646484"/>
      </g>
     </g>
    </g>
    <g id="ytick_8">
     <g id="line2d_19">
      <g>
       <use xlink:href="#m164824041c" x="108.009375" y="66.365589" style="stroke: #000000; stroke-width: 0.8"/>
      </g>
     </g>
     <g id="text_26">
      <!-- matplotlib -->
      <g transform="translate(50.15 70.164808) scale(0.1 -0.1)">
       <use xlink:href="#DejaVuSans-6d"/>
       <use xlink:href="#DejaVuSans-61" x="97.412109"/>
       <use xlink:href="#DejaVuSans-74" x="158.691406"/>
       <use xlink:href="#DejaVuSans-70" x="197.900391"/>
       <use xlink:href="#DejaVuSans-6c" x="261.376953"/>
       <use xlink:href="#DejaVuSans-6f" x="289.160156"/>
       <use xlink:href="#DejaVuSans-74" x="350.341797"/>
       <use xlink:href="#DejaVuSans-6c" x="389.550781"/>
       <use xlink:href="#DejaVuSans-69" x="417.333984"/>
       <use xlink:href="#DejaVuSans-62" x="445.117188"/>
      </g>
     </g>
    </g>
    <g id="ytick_9">
     <g id="line2d_20">
      <g>
       <use xlink:href="#m164824041c" x="108.009375" y="76.700517" style="stroke: #000000; stroke-width: 0.8"/>
      </g>
     </g>
     <g id="text_27">
      <!-- seaborn -->
      <g transform="translate(60.778125 80.499736) scale(0.1 -0.1)">
       <use xlink:href="#DejaVuSans-73"/>
       <use xlink:href="#DejaVuSans-65" x="52.099609"/>
       <use xlink:href="#DejaVuSans-61" x="113.623047"/>
       <use xlink:href="#DejaVuSans-62" x="174.902344"/>
       <use xlink:href="#DejaVuSans-6f" x="238.378906"/>
       <use xlink:href="#DejaVuSans-72" x="299.560547"/>
       <use xlink:href="#DejaVuSans-6e" x="338.923828"/>
      </g>
     </g>
    </g>
   </g>
   <g id="patch_11">
    <path d="M 108.009375 82.798125 
L 108.009375 39.598125 
" style="fill: none; stroke: #000000; stroke-width: 0.8; stroke-linejoin: miter; stroke-linecap: square"/>
   </g>
   <g id="patch_12">
    <path d="M 108.009375 82.798125 
L 280.809375 82.798125 
" style="fill: none; stroke: #000000; stroke-width: 0.8; stroke-linejoin: miter; stroke-linecap: square"/>
   </g>
  </g>
 </g>
 <defs>
  <clipPath id="p6402814d1e">
   <rect x="43.209375" y="22.318125" width="669.6" height="166.32"/>
  </clipPath>
  <clipPath id="pb6a5b6e6fc">
   <rect x="108.009375" y="39.598125" width="172.8" height="43.2"/>
  </clipPath>
 </defs>
</svg>
