<?xml version="1.0" encoding="utf-8" standalone="no"?>
<!DOCTYPE svg PUBLIC "-//W3C//DTD SVG 1.1//EN"
  "http://www.w3.org/Graphics/SVG/1.1/DTD/svg11.dtd">
<svg xmlns:xlink="http://www.w3.org/1999/xlink" width="769.244886pt" height="209.27625pt" viewBox="0 0 769.244886 209.27625" xmlns="http://www.w3.org/2000/svg" version="1.1">
 <metadata>
  <rdf:RDF xmlns:dc="http://purl.org/dc/elements/1.1/" xmlns:cc="http://creativecommons.org/ns#" xmlns:rdf="http://www.w3.org/1999/02/22-rdf-syntax-ns#">
   <cc:Work>
    <dc:type rdf:resource="http://purl.org/dc/dcmitype/StillImage"/>
    <dc:date>2022-04-06T12:25:36.479556</dc:date>
    <dc:format>image/svg+xml</dc:format>
    <dc:creator>
     <cc:Agent>
      <dc:title>Matplotlib v3.5.1, https://matplotlib.org/</dc:title>
     </cc:Agent>
    </dc:creator>
   </cc:Work>
  </rdf:RDF>
 </metadata>
 <defs>
  <style type="text/css">*{stroke-linejoin: round; stroke-linecap: butt}</style>
 </defs>
 <g id="figure_1">
  <g id="patch_1">
   <path d="M 0 209.27625 
L 769.244886 209.27625 
L 769.244886 0 
L 0 0 
L 0 209.27625 
z
" style="fill: none"/>
  </g>
  <g id="axes_1">
   <g id="patch_2">
    <path d="M 43.209375 185.398125 
L 712.809375 185.398125 
L 712.809375 22.318125 
L 43.209375 22.318125 
z
" style="fill: #ffffff"/>
   </g>
   <g id="PolyCollection_1">
    <path d="M 73.645739 185.398125 
L 73.645739 185.398125 
L 77.64543 185.398125 
L 81.5161 185.398125 
L 85.515791 185.398125 
L 89.515483 185.398125 
L 93.128108 185.398125 
L 97.1278 185.398125 
L 100.998469 185.398125 
L 104.998161 185.398125 
L 108.86883 185.398125 
L 112.868522 185.398125 
L 116.868213 185.398125 
L 120.738883 185.398125 
L 124.738575 185.398125 
L 128.609244 185.398125 
L 132.608936 185.398125 
L 136.608627 185.398125 
L 140.221252 185.398125 
L 144.220944 185.398125 
L 148.091613 185.398125 
L 152.091305 185.398125 
L 155.961974 185.398125 
L 159.961666 185.398125 
L 163.961358 185.398125 
L 167.832027 185.398125 
L 171.831719 185.398125 
L 175.702388 185.398125 
L 179.70208 185.398125 
L 183.701772 185.398125 
L 187.314396 185.398125 
L 191.314088 185.398125 
L 195.184757 185.398125 
L 199.184449 185.398125 
L 203.055119 185.398125 
L 207.05481 185.398125 
L 211.054502 185.398125 
L 214.925171 185.398125 
L 218.924863 185.398125 
L 222.795532 185.398125 
L 226.795224 185.398125 
L 230.794916 185.398125 
L 234.536563 185.398125 
L 238.536255 185.398125 
L 242.406924 185.398125 
L 246.406616 185.398125 
L 250.277285 185.398125 
L 254.276977 185.398125 
L 258.276669 185.398125 
L 262.147338 185.398125 
L 266.14703 185.398125 
L 270.017699 185.398125 
L 274.017391 185.398125 
L 278.017082 185.398125 
L 281.629707 185.398125 
L 285.629399 185.398125 
L 289.500068 185.398125 
L 293.49976 185.398125 
L 297.370429 185.398125 
L 301.370121 185.398125 
L 305.369813 185.398125 
L 309.240482 185.398125 
L 313.240174 185.398125 
L 317.110843 185.398125 
L 321.110535 185.398125 
L 325.110227 185.398125 
L 328.722851 185.398125 
L 332.722543 185.398125 
L 336.593213 185.398125 
L 340.592904 185.398125 
L 344.463574 185.398125 
L 348.463265 185.398125 
L 352.462957 185.398125 
L 356.333626 185.398125 
L 360.333318 185.398125 
L 364.203988 185.398125 
L 368.203679 185.398125 
L 372.203371 185.398125 
L 375.815996 185.398125 
L 379.815687 185.398125 
L 383.686357 185.398125 
L 387.686048 185.398125 
L 391.556718 185.398125 
L 395.55641 185.398125 
L 399.556101 185.398125 
L 403.426771 185.398125 
L 407.426462 185.398125 
L 411.297132 185.398125 
L 415.296823 185.398125 
L 419.296515 185.398125 
L 423.038162 185.398125 
L 427.037854 185.398125 
L 430.908523 185.398125 
L 434.908215 185.398125 
L 438.778884 185.398125 
L 442.778576 185.398125 
L 446.778268 185.398125 
L 450.648937 185.398125 
L 454.648629 185.398125 
L 458.519298 185.398125 
L 462.51899 185.398125 
L 466.518682 185.398125 
L 470.131306 185.398125 
L 474.130998 185.398125 
L 478.001668 185.398125 
L 482.001359 185.398125 
L 485.872029 185.398125 
L 489.87172 185.398125 
L 493.871412 185.398125 
L 497.742081 185.398125 
L 501.741773 185.398125 
L 505.612443 185.398125 
L 509.612134 185.398125 
L 513.611826 185.398125 
L 517.224451 185.398125 
L 521.224142 185.398125 
L 525.094812 185.398125 
L 529.094504 185.398125 
L 532.965173 185.398125 
L 536.964865 185.398125 
L 540.964556 185.398125 
L 544.835226 185.398125 
L 548.834917 185.398125 
L 552.705587 185.398125 
L 556.705279 185.398125 
L 560.70497 185.398125 
L 564.317595 185.398125 
L 568.317287 185.398125 
L 572.187956 185.398125 
L 576.187648 185.398125 
L 580.058317 185.398125 
L 584.058009 185.398125 
L 588.057701 185.398125 
L 591.92837 185.398125 
L 595.928062 185.398125 
L 599.798731 185.398125 
L 603.798423 185.398125 
L 607.798114 185.398125 
L 611.539762 185.398125 
L 615.539453 185.398125 
L 619.410123 185.398125 
L 623.409814 185.398125 
L 627.280484 185.398125 
L 631.280175 185.398125 
L 635.279867 185.398125 
L 639.150537 185.398125 
L 643.150228 185.398125 
L 647.020898 185.398125 
L 651.020589 185.398125 
L 655.020281 185.398125 
L 658.632906 185.398125 
L 662.632597 185.398125 
L 666.503267 185.398125 
L 670.502959 185.398125 
L 674.373628 185.398125 
L 678.37332 185.398125 
L 682.373011 185.398125 
L 682.373011 104.545613 
L 682.373011 104.545613 
L 678.37332 104.642443 
L 674.373628 101.524538 
L 670.502959 103.732247 
L 666.503267 101.447074 
L 662.632597 88.762429 
L 658.632906 104.255125 
L 655.020281 108.534983 
L 651.020589 107.237469 
L 647.020898 102.12488 
L 643.150228 98.716486 
L 639.150537 104.603711 
L 635.279867 106.985713 
L 631.280175 95.598581 
L 627.280484 91.24126 
L 623.409814 88.549404 
L 619.410123 92.015895 
L 615.539453 109.135325 
L 611.539762 112.485621 
L 607.798114 112.698645 
L 603.798423 121.200263 
L 599.798731 117.753137 
L 595.928062 113.14406 
L 591.92837 126.719536 
L 588.057701 119.728456 
L 584.058009 117.772503 
L 580.058317 129.585685 
L 576.187648 123.679094 
L 572.187956 123.020654 
L 568.317287 121.703775 
L 564.317595 127.881488 
L 560.70497 130.708905 
L 556.705279 138.029204 
L 552.705587 128.965977 
L 548.834917 129.508221 
L 544.835226 136.344374 
L 540.964556 129.04344 
L 536.964865 127.571634 
L 532.965173 133.303932 
L 529.094504 135.511641 
L 525.094812 137.332033 
L 521.224142 133.729981 
L 517.224451 142.541452 
L 513.611826 143.006233 
L 509.612134 149.16458 
L 505.612443 143.993893 
L 501.741773 143.316087 
L 497.742081 147.324823 
L 493.871412 144.05199 
L 489.87172 145.175211 
L 485.872029 147.073066 
L 482.001359 148.157555 
L 478.001668 149.803654 
L 474.130998 146.956871 
L 470.131306 155.109903 
L 466.518682 155.671513 
L 462.51899 157.995417 
L 458.519298 156.310587 
L 454.648629 159.292931 
L 450.648937 159.932005 
L 446.778268 158.886248 
L 442.778576 156.910929 
L 438.778884 160.512981 
L 434.908215 160.629176 
L 430.908523 162.255909 
L 427.037854 163.805179 
L 423.038162 165.276985 
L 419.296515 167.717085 
L 415.296823 168.123768 
L 411.297132 168.06567 
L 407.426462 167.078011 
L 403.426771 169.847331 
L 399.556101 170.757526 
L 395.55641 168.72411 
L 391.556718 170.486404 
L 387.686048 172.403626 
L 383.686357 171.706454 
L 379.815687 172.345528 
L 375.815996 175.018018 
L 372.203371 176.005678 
L 368.203679 177.322557 
L 364.203988 175.405336 
L 360.333318 175.986312 
L 356.333626 175.928214 
L 352.462957 176.102507 
L 348.463265 176.005678 
L 344.463574 176.470458 
L 340.592904 176.451093 
L 336.593213 175.850751 
L 332.722543 175.192311 
L 328.722851 177.535581 
L 325.110227 176.664117 
L 321.110535 178.94929 
L 317.110843 178.503875 
L 313.240174 178.445777 
L 309.240482 180.73095 
L 305.369813 179.898218 
L 301.370121 179.801388 
L 297.370429 180.634121 
L 293.49976 181.021438 
L 289.500068 181.71861 
L 285.629399 182.047829 
L 281.629707 181.796073 
L 278.017082 182.377049 
L 274.017391 182.996757 
L 270.017699 183.07422 
L 266.14703 183.40344 
L 262.147338 183.597099 
L 258.276669 183.693928 
L 254.276977 184.119978 
L 250.277285 184.429831 
L 246.406616 184.565393 
L 242.406924 184.894612 
L 238.536255 184.817149 
L 234.536563 185.320662 
L 230.794916 185.28193 
L 226.795224 185.378759 
L 222.795532 185.359393 
L 218.924863 185.320662 
L 214.925171 185.378759 
L 211.054502 185.398125 
L 207.05481 185.398125 
L 203.055119 185.378759 
L 199.184449 185.398125 
L 195.184757 185.359393 
L 191.314088 185.378759 
L 187.314396 185.398125 
L 183.701772 185.398125 
L 179.70208 185.398125 
L 175.702388 185.398125 
L 171.831719 185.398125 
L 167.832027 185.398125 
L 163.961358 185.398125 
L 159.961666 185.398125 
L 155.961974 185.398125 
L 152.091305 185.398125 
L 148.091613 185.398125 
L 144.220944 185.398125 
L 140.221252 185.398125 
L 136.608627 185.398125 
L 132.608936 185.398125 
L 128.609244 185.398125 
L 124.738575 185.398125 
L 120.738883 185.398125 
L 116.868213 185.398125 
L 112.868522 185.398125 
L 108.86883 185.398125 
L 104.998161 185.398125 
L 100.998469 185.398125 
L 97.1278 185.398125 
L 93.128108 185.398125 
L 89.515483 185.398125 
L 85.515791 185.398125 
L 81.5161 185.398125 
L 77.64543 185.398125 
L 73.645739 185.398125 
z
" clip-path="url(#pbb765c732b)" style="fill: #1f77b4"/>
   </g>
   <g id="PolyCollection_2">
    <path d="M 73.645739 185.340027 
L 73.645739 185.398125 
L 77.64543 185.398125 
L 81.5161 185.398125 
L 85.515791 185.398125 
L 89.515483 185.398125 
L 93.128108 185.398125 
L 97.1278 185.398125 
L 100.998469 185.398125 
L 104.998161 185.398125 
L 108.86883 185.398125 
L 112.868522 185.398125 
L 116.868213 185.398125 
L 120.738883 185.398125 
L 124.738575 185.398125 
L 128.609244 185.398125 
L 132.608936 185.398125 
L 136.608627 185.398125 
L 140.221252 185.398125 
L 144.220944 185.398125 
L 148.091613 185.398125 
L 152.091305 185.398125 
L 155.961974 185.398125 
L 159.961666 185.398125 
L 163.961358 185.398125 
L 167.832027 185.398125 
L 171.831719 185.398125 
L 175.702388 185.398125 
L 179.70208 185.398125 
L 183.701772 185.398125 
L 187.314396 185.398125 
L 191.314088 185.378759 
L 195.184757 185.359393 
L 199.184449 185.398125 
L 203.055119 185.378759 
L 207.05481 185.398125 
L 211.054502 185.398125 
L 214.925171 185.378759 
L 218.924863 185.320662 
L 222.795532 185.359393 
L 226.795224 185.378759 
L 230.794916 185.28193 
L 234.536563 185.320662 
L 238.536255 184.817149 
L 242.406924 184.894612 
L 246.406616 184.565393 
L 250.277285 184.429831 
L 254.276977 184.119978 
L 258.276669 183.693928 
L 262.147338 183.597099 
L 266.14703 183.40344 
L 270.017699 183.07422 
L 274.017391 182.996757 
L 278.017082 182.377049 
L 281.629707 181.796073 
L 285.629399 182.047829 
L 289.500068 181.71861 
L 293.49976 181.021438 
L 297.370429 180.634121 
L 301.370121 179.801388 
L 305.369813 179.898218 
L 309.240482 180.73095 
L 313.240174 178.445777 
L 317.110843 178.503875 
L 321.110535 178.94929 
L 325.110227 176.664117 
L 328.722851 177.535581 
L 332.722543 175.192311 
L 336.593213 175.850751 
L 340.592904 176.451093 
L 344.463574 176.470458 
L 348.463265 176.005678 
L 352.462957 176.102507 
L 356.333626 175.928214 
L 360.333318 175.986312 
L 364.203988 175.405336 
L 368.203679 177.322557 
L 372.203371 176.005678 
L 375.815996 175.018018 
L 379.815687 172.345528 
L 383.686357 171.706454 
L 387.686048 172.403626 
L 391.556718 170.486404 
L 395.55641 168.72411 
L 399.556101 170.757526 
L 403.426771 169.847331 
L 407.426462 167.078011 
L 411.297132 168.06567 
L 415.296823 168.123768 
L 419.296515 167.717085 
L 423.038162 165.276985 
L 427.037854 163.805179 
L 430.908523 162.255909 
L 434.908215 160.629176 
L 438.778884 160.512981 
L 442.778576 156.910929 
L 446.778268 158.886248 
L 450.648937 159.932005 
L 454.648629 159.292931 
L 458.519298 156.310587 
L 462.51899 157.995417 
L 466.518682 155.671513 
L 470.131306 155.109903 
L 474.130998 146.956871 
L 478.001668 149.803654 
L 482.001359 148.157555 
L 485.872029 147.073066 
L 489.87172 145.175211 
L 493.871412 144.05199 
L 497.742081 147.324823 
L 501.741773 143.316087 
L 505.612443 143.993893 
L 509.612134 149.16458 
L 513.611826 143.006233 
L 517.224451 142.541452 
L 521.224142 133.729981 
L 525.094812 137.332033 
L 529.094504 135.511641 
L 532.965173 133.303932 
L 536.964865 127.571634 
L 540.964556 129.04344 
L 544.835226 136.344374 
L 548.834917 129.508221 
L 552.705587 128.965977 
L 556.705279 138.029204 
L 560.70497 130.708905 
L 564.317595 127.881488 
L 568.317287 121.703775 
L 572.187956 123.020654 
L 576.187648 123.679094 
L 580.058317 129.585685 
L 584.058009 117.772503 
L 588.057701 119.728456 
L 591.92837 126.719536 
L 595.928062 113.14406 
L 599.798731 117.753137 
L 603.798423 121.200263 
L 607.798114 112.698645 
L 611.539762 112.485621 
L 615.539453 109.135325 
L 619.410123 92.015895 
L 623.409814 88.549404 
L 627.280484 91.24126 
L 631.280175 95.598581 
L 635.279867 106.985713 
L 639.150537 104.603711 
L 643.150228 98.716486 
L 647.020898 102.12488 
L 651.020589 107.237469 
L 655.020281 108.534983 
L 658.632906 104.255125 
L 662.632597 88.762429 
L 666.503267 101.447074 
L 670.502959 103.732247 
L 674.373628 101.524538 
L 678.37332 104.642443 
L 682.373011 104.545613 
L 682.373011 83.339985 
L 682.373011 83.339985 
L 678.37332 80.861153 
L 674.373628 78.01437 
L 670.502959 78.246761 
L 666.503267 75.283782 
L 662.632597 59.34567 
L 658.632906 79.873494 
L 655.020281 84.250181 
L 651.020589 81.926276 
L 647.020898 74.702806 
L 643.150228 70.984559 
L 639.150537 80.260811 
L 635.279867 84.114619 
L 631.280175 67.634263 
L 627.280484 62.6766 
L 623.409814 57.273522 
L 619.410123 62.657234 
L 615.539453 85.547694 
L 611.539762 89.420868 
L 607.798114 92.732432 
L 603.798423 101.214684 
L 599.798731 95.172532 
L 595.928062 89.982478 
L 591.92837 108.36069 
L 588.057701 99.800975 
L 584.058009 97.070387 
L 580.058317 112.195132 
L 576.187648 104.042101 
L 572.187956 101.117854 
L 568.317287 98.193608 
L 564.317595 107.043811 
L 560.70497 112.872938 
L 556.705279 120.348164 
L 552.705587 109.212788 
L 548.834917 110.103618 
L 544.835226 118.934456 
L 540.964556 110.14235 
L 536.964865 107.334299 
L 532.965173 115.274306 
L 529.094504 116.959137 
L 525.094812 118.58587 
L 521.224142 113.260255 
L 517.224451 122.962557 
L 513.611826 123.601631 
L 509.612134 131.25115 
L 505.612443 123.156215 
L 501.741773 122.071727 
L 497.742081 129.721246 
L 493.871412 125.092803 
L 489.87172 125.538218 
L 485.872029 128.559294 
L 482.001359 129.508221 
L 478.001668 129.973002 
L 474.130998 125.867437 
L 470.131306 137.080277 
L 466.518682 140.217548 
L 462.51899 143.548478 
L 458.519298 140.120719 
L 454.648629 143.916429 
L 450.648937 145.175211 
L 446.778268 144.206917 
L 442.778576 141.631256 
L 438.778884 145.620626 
L 434.908215 147.266725 
L 430.908523 146.375895 
L 427.037854 148.176921 
L 423.038162 150.71385 
L 419.296515 154.451463 
L 415.296823 156.814099 
L 411.297132 155.129269 
L 407.426462 155.439123 
L 403.426771 159.525321 
L 399.556101 159.912639 
L 395.55641 156.116928 
L 391.556718 158.866882 
L 387.686048 160.28059 
L 383.686357 160.222493 
L 379.815687 159.835175 
L 375.815996 164.328057 
L 372.203371 166.419571 
L 368.203679 169.188891 
L 364.203988 166.516401 
L 360.333318 165.916059 
L 356.333626 167.697719 
L 352.462957 167.058645 
L 348.463265 166.690694 
L 344.463574 168.046305 
L 340.592904 166.593864 
L 336.593213 166.05162 
L 332.722543 164.250594 
L 328.722851 166.768157 
L 325.110227 167.232938 
L 321.110535 171.16421 
L 317.110843 169.092062 
L 313.240174 169.711769 
L 309.240482 173.100797 
L 305.369813 173.371919 
L 301.370121 171.764552 
L 297.370429 174.921189 
L 293.49976 174.010993 
L 289.500068 174.282115 
L 285.629399 175.695824 
L 281.629707 176.315531 
L 278.017082 177.438752 
L 274.017391 178.94929 
L 270.017699 177.671142 
L 266.14703 178.62007 
L 262.147338 179.142949 
L 258.276669 179.394705 
L 254.276977 180.188706 
L 250.277285 180.982706 
L 246.406616 181.234463 
L 242.406924 181.873536 
L 238.536255 181.583048 
L 234.536563 182.415781 
L 230.794916 182.493244 
L 226.795224 183.287245 
L 222.795532 183.287245 
L 218.924863 182.628805 
L 214.925171 183.054855 
L 211.054502 182.996757 
L 207.05481 183.558367 
L 203.055119 183.73266 
L 199.184449 183.597099 
L 195.184757 183.40344 
L 191.314088 183.132318 
L 187.314396 184.197441 
L 183.701772 184.410466 
L 179.70208 184.158709 
L 175.702388 184.119978 
L 171.831719 184.410466 
L 167.832027 184.584758 
L 163.961358 184.449197 
L 159.961666 184.700954 
L 155.961974 184.565393 
L 152.091305 184.797783 
L 148.091613 184.584758 
L 144.220944 184.642856 
L 140.221252 184.62349 
L 136.608627 184.991442 
L 132.608936 184.894612 
L 128.609244 184.642856 
L 124.738575 184.875246 
L 120.738883 185.243198 
L 116.868213 185.223832 
L 112.868522 185.28193 
L 108.86883 185.146369 
L 104.998161 185.262564 
L 100.998469 185.262564 
L 97.1278 185.320662 
L 93.128108 185.262564 
L 89.515483 185.262564 
L 85.515791 185.320662 
L 81.5161 185.340027 
L 77.64543 185.359393 
L 73.645739 185.340027 
z
" clip-path="url(#pbb765c732b)" style="fill: #ff7f0e"/>
   </g>
   <g id="PolyCollection_3">
    <path d="M 73.645739 185.301296 
L 73.645739 185.340027 
L 77.64543 185.359393 
L 81.5161 185.340027 
L 85.515791 185.320662 
L 89.515483 185.262564 
L 93.128108 185.262564 
L 97.1278 185.320662 
L 100.998469 185.262564 
L 104.998161 185.262564 
L 108.86883 185.146369 
L 112.868522 185.28193 
L 116.868213 185.223832 
L 120.738883 185.243198 
L 124.738575 184.875246 
L 128.609244 184.642856 
L 132.608936 184.894612 
L 136.608627 184.991442 
L 140.221252 184.62349 
L 144.220944 184.642856 
L 148.091613 184.584758 
L 152.091305 184.797783 
L 155.961974 184.565393 
L 159.961666 184.700954 
L 163.961358 184.449197 
L 167.832027 184.584758 
L 171.831719 184.410466 
L 175.702388 184.119978 
L 179.70208 184.158709 
L 183.701772 184.410466 
L 187.314396 184.197441 
L 191.314088 183.132318 
L 195.184757 183.40344 
L 199.184449 183.597099 
L 203.055119 183.73266 
L 207.05481 183.558367 
L 211.054502 182.996757 
L 214.925171 183.054855 
L 218.924863 182.628805 
L 222.795532 183.287245 
L 226.795224 183.287245 
L 230.794916 182.493244 
L 234.536563 182.415781 
L 238.536255 181.583048 
L 242.406924 181.873536 
L 246.406616 181.234463 
L 250.277285 180.982706 
L 254.276977 180.188706 
L 258.276669 179.394705 
L 262.147338 179.142949 
L 266.14703 178.62007 
L 270.017699 177.671142 
L 274.017391 178.94929 
L 278.017082 177.438752 
L 281.629707 176.315531 
L 285.629399 175.695824 
L 289.500068 174.282115 
L 293.49976 174.010993 
L 297.370429 174.921189 
L 301.370121 171.764552 
L 305.369813 173.371919 
L 309.240482 173.100797 
L 313.240174 169.711769 
L 317.110843 169.092062 
L 321.110535 171.16421 
L 325.110227 167.232938 
L 328.722851 166.768157 
L 332.722543 164.250594 
L 336.593213 166.05162 
L 340.592904 166.593864 
L 344.463574 168.046305 
L 348.463265 166.690694 
L 352.462957 167.058645 
L 356.333626 167.697719 
L 360.333318 165.916059 
L 364.203988 166.516401 
L 368.203679 169.188891 
L 372.203371 166.419571 
L 375.815996 164.328057 
L 379.815687 159.835175 
L 383.686357 160.222493 
L 387.686048 160.28059 
L 391.556718 158.866882 
L 395.55641 156.116928 
L 399.556101 159.912639 
L 403.426771 159.525321 
L 407.426462 155.439123 
L 411.297132 155.129269 
L 415.296823 156.814099 
L 419.296515 154.451463 
L 423.038162 150.71385 
L 427.037854 148.176921 
L 430.908523 146.375895 
L 434.908215 147.266725 
L 438.778884 145.620626 
L 442.778576 141.631256 
L 446.778268 144.206917 
L 450.648937 145.175211 
L 454.648629 143.916429 
L 458.519298 140.120719 
L 462.51899 143.548478 
L 466.518682 140.217548 
L 470.131306 137.080277 
L 474.130998 125.867437 
L 478.001668 129.973002 
L 482.001359 129.508221 
L 485.872029 128.559294 
L 489.87172 125.538218 
L 493.871412 125.092803 
L 497.742081 129.721246 
L 501.741773 122.071727 
L 505.612443 123.156215 
L 509.612134 131.25115 
L 513.611826 123.601631 
L 517.224451 122.962557 
L 521.224142 113.260255 
L 525.094812 118.58587 
L 529.094504 116.959137 
L 532.965173 115.274306 
L 536.964865 107.334299 
L 540.964556 110.14235 
L 544.835226 118.934456 
L 548.834917 110.103618 
L 552.705587 109.212788 
L 556.705279 120.348164 
L 560.70497 112.872938 
L 564.317595 107.043811 
L 568.317287 98.193608 
L 572.187956 101.117854 
L 576.187648 104.042101 
L 580.058317 112.195132 
L 584.058009 97.070387 
L 588.057701 99.800975 
L 591.92837 108.36069 
L 595.928062 89.982478 
L 599.798731 95.172532 
L 603.798423 101.214684 
L 607.798114 92.732432 
L 611.539762 89.420868 
L 615.539453 85.547694 
L 619.410123 62.657234 
L 623.409814 57.273522 
L 627.280484 62.6766 
L 631.280175 67.634263 
L 635.279867 84.114619 
L 639.150537 80.260811 
L 643.150228 70.984559 
L 647.020898 74.702806 
L 651.020589 81.926276 
L 655.020281 84.250181 
L 658.632906 79.873494 
L 662.632597 59.34567 
L 666.503267 75.283782 
L 670.502959 78.246761 
L 674.373628 78.01437 
L 678.37332 80.861153 
L 682.373011 83.339985 
L 682.373011 67.421239 
L 682.373011 67.421239 
L 678.37332 64.864944 
L 674.373628 63.509333 
L 670.502959 62.289283 
L 666.503267 55.821082 
L 662.632597 39.611848 
L 658.632906 61.8826 
L 655.020281 66.588506 
L 651.020589 64.070943 
L 647.020898 54.872154 
L 643.150228 51.851078 
L 639.150537 62.269917 
L 635.279867 69.047972 
L 631.280175 48.365222 
L 627.280484 42.942778 
L 623.409814 34.44116 
L 619.410123 41.858289 
L 615.539453 68.234605 
L 611.539762 75.57427 
L 607.798114 79.060127 
L 603.798423 89.246575 
L 599.798731 81.655154 
L 595.928062 76.174612 
L 591.92837 97.709461 
L 588.057701 87.116329 
L 584.058009 84.5794 
L 580.058317 101.195318 
L 576.187648 90.427893 
L 572.187956 87.755403 
L 568.317287 84.230815 
L 564.317595 95.036971 
L 560.70497 101.679465 
L 556.705279 108.573715 
L 552.705587 95.772874 
L 548.834917 97.535168 
L 544.835226 107.411762 
L 540.964556 98.058047 
L 536.964865 94.649653 
L 532.965173 103.422393 
L 529.094504 105.939956 
L 525.094812 107.547323 
L 521.224142 101.776294 
L 517.224451 112.81484 
L 513.611826 112.485621 
L 509.612134 121.161531 
L 505.612443 111.071912 
L 501.741773 111.110644 
L 497.742081 120.561189 
L 493.871412 114.770793 
L 489.87172 113.318353 
L 485.872029 116.378161 
L 482.001359 117.501381 
L 478.001668 116.70738 
L 474.130998 113.105328 
L 470.131306 126.680804 
L 466.518682 131.677199 
L 462.51899 136.111983 
L 458.519298 131.270515 
L 454.648629 135.163056 
L 450.648937 136.944716 
L 446.778268 134.950031 
L 442.778576 132.064516 
L 438.778884 136.03452 
L 434.908215 137.932375 
L 430.908523 136.170081 
L 427.037854 137.913009 
L 423.038162 141.650622 
L 419.296515 145.426967 
L 415.296823 149.455068 
L 411.297132 145.485065 
L 407.426462 148.021994 
L 403.426771 152.49551 
L 399.556101 152.611705 
L 395.55641 146.143504 
L 391.556718 151.60468 
L 387.686048 152.669803 
L 383.686357 153.270145 
L 379.815687 152.553608 
L 375.815996 158.150344 
L 372.203371 160.822835 
L 368.203679 163.766447 
L 364.203988 159.990102 
L 360.333318 160.842201 
L 356.333626 162.546397 
L 352.462957 160.745371 
L 348.463265 159.351028 
L 344.463574 162.740056 
L 340.592904 160.474249 
L 336.593213 159.292931 
L 332.722543 156.465514 
L 328.722851 159.796443 
L 325.110227 160.706639 
L 321.110535 166.38084 
L 317.110843 162.95308 
L 313.240174 163.708349 
L 309.240482 167.813914 
L 305.369813 168.820939 
L 301.370121 166.61323 
L 297.370429 170.951185 
L 293.49976 169.363184 
L 289.500068 169.692404 
L 285.629399 171.280405 
L 281.629707 172.035674 
L 278.017082 173.449383 
L 274.017391 175.870116 
L 270.017699 174.320847 
L 266.14703 175.211677 
L 262.147338 176.915873 
L 258.276669 176.218702 
L 254.276977 177.283825 
L 250.277285 178.561973 
L 246.406616 178.852461 
L 242.406924 179.743291 
L 238.536255 179.568998 
L 234.536563 180.111242 
L 230.794916 180.789048 
L 226.795224 181.466853 
L 222.795532 181.679878 
L 218.924863 181.021438 
L 214.925171 181.873536 
L 211.054502 181.563683 
L 207.05481 182.435147 
L 203.055119 182.51261 
L 199.184449 182.318952 
L 195.184757 182.28022 
L 191.314088 181.699244 
L 187.314396 183.093586 
L 183.701772 183.635831 
L 179.70208 183.713294 
L 175.702388 183.384074 
L 171.831719 183.73266 
L 167.832027 184.023148 
L 163.961358 183.771392 
L 159.961666 184.158709 
L 155.961974 184.023148 
L 152.091305 184.429831 
L 148.091613 184.158709 
L 144.220944 184.003782 
L 140.221252 184.139343 
L 136.608627 184.681588 
L 132.608936 184.681588 
L 128.609244 184.410466 
L 124.738575 184.681588 
L 120.738883 185.030173 
L 116.868213 184.972076 
L 112.868522 185.165735 
L 108.86883 185.107637 
L 104.998161 185.127003 
L 100.998469 185.127003 
L 97.1278 185.262564 
L 93.128108 185.204466 
L 89.515483 185.243198 
L 85.515791 185.28193 
L 81.5161 185.340027 
L 77.64543 185.359393 
L 73.645739 185.301296 
z
" clip-path="url(#pbb765c732b)" style="fill: #2ca02c"/>
   </g>
   <g id="PolyCollection_4">
    <path d="M 73.645739 185.301296 
L 73.645739 185.301296 
L 77.64543 185.359393 
L 81.5161 185.340027 
L 85.515791 185.28193 
L 89.515483 185.243198 
L 93.128108 185.204466 
L 97.1278 185.262564 
L 100.998469 185.127003 
L 104.998161 185.127003 
L 108.86883 185.107637 
L 112.868522 185.165735 
L 116.868213 184.972076 
L 120.738883 185.030173 
L 124.738575 184.681588 
L 128.609244 184.410466 
L 132.608936 184.681588 
L 136.608627 184.681588 
L 140.221252 184.139343 
L 144.220944 184.003782 
L 148.091613 184.158709 
L 152.091305 184.429831 
L 155.961974 184.023148 
L 159.961666 184.158709 
L 163.961358 183.771392 
L 167.832027 184.023148 
L 171.831719 183.73266 
L 175.702388 183.384074 
L 179.70208 183.713294 
L 183.701772 183.635831 
L 187.314396 183.093586 
L 191.314088 181.699244 
L 195.184757 182.28022 
L 199.184449 182.318952 
L 203.055119 182.51261 
L 207.05481 182.435147 
L 211.054502 181.563683 
L 214.925171 181.873536 
L 218.924863 181.021438 
L 222.795532 181.679878 
L 226.795224 181.466853 
L 230.794916 180.789048 
L 234.536563 180.111242 
L 238.536255 179.568998 
L 242.406924 179.743291 
L 246.406616 178.852461 
L 250.277285 178.561973 
L 254.276977 177.283825 
L 258.276669 176.218702 
L 262.147338 176.915873 
L 266.14703 175.211677 
L 270.017699 174.320847 
L 274.017391 175.870116 
L 278.017082 173.449383 
L 281.629707 172.035674 
L 285.629399 171.280405 
L 289.500068 169.692404 
L 293.49976 169.363184 
L 297.370429 170.951185 
L 301.370121 166.61323 
L 305.369813 168.820939 
L 309.240482 167.813914 
L 313.240174 163.708349 
L 317.110843 162.95308 
L 321.110535 166.38084 
L 325.110227 160.706639 
L 328.722851 159.796443 
L 332.722543 156.465514 
L 336.593213 159.292931 
L 340.592904 160.474249 
L 344.463574 162.740056 
L 348.463265 159.351028 
L 352.462957 160.745371 
L 356.333626 162.546397 
L 360.333318 160.842201 
L 364.203988 159.990102 
L 368.203679 163.766447 
L 372.203371 160.822835 
L 375.815996 158.150344 
L 379.815687 152.553608 
L 383.686357 153.270145 
L 387.686048 152.669803 
L 391.556718 151.60468 
L 395.55641 146.143504 
L 399.556101 152.611705 
L 403.426771 152.49551 
L 407.426462 148.021994 
L 411.297132 145.485065 
L 415.296823 149.455068 
L 419.296515 145.426967 
L 423.038162 141.650622 
L 427.037854 137.913009 
L 430.908523 136.170081 
L 434.908215 137.932375 
L 438.778884 136.03452 
L 442.778576 132.064516 
L 446.778268 134.950031 
L 450.648937 136.944716 
L 454.648629 135.163056 
L 458.519298 131.270515 
L 462.51899 136.111983 
L 466.518682 131.677199 
L 470.131306 126.680804 
L 474.130998 113.105328 
L 478.001668 116.70738 
L 482.001359 117.501381 
L 485.872029 116.378161 
L 489.87172 113.318353 
L 493.871412 114.770793 
L 497.742081 120.561189 
L 501.741773 111.110644 
L 505.612443 111.071912 
L 509.612134 121.161531 
L 513.611826 112.485621 
L 517.224451 112.81484 
L 521.224142 101.776294 
L 525.094812 107.547323 
L 529.094504 105.939956 
L 532.965173 103.422393 
L 536.964865 94.649653 
L 540.964556 98.058047 
L 544.835226 107.411762 
L 548.834917 97.535168 
L 552.705587 95.772874 
L 556.705279 108.573715 
L 560.70497 101.679465 
L 564.317595 95.036971 
L 568.317287 84.230815 
L 572.187956 87.755403 
L 576.187648 90.427893 
L 580.058317 101.195318 
L 584.058009 84.5794 
L 588.057701 87.116329 
L 591.92837 97.709461 
L 595.928062 76.174612 
L 599.798731 81.655154 
L 603.798423 89.246575 
L 607.798114 79.060127 
L 611.539762 75.57427 
L 615.539453 68.234605 
L 619.410123 41.858289 
L 623.409814 34.44116 
L 627.280484 42.942778 
L 631.280175 48.365222 
L 635.279867 69.047972 
L 639.150537 62.269917 
L 643.150228 51.851078 
L 647.020898 54.872154 
L 651.020589 64.070943 
L 655.020281 66.588506 
L 658.632906 61.8826 
L 662.632597 39.611848 
L 666.503267 55.821082 
L 670.502959 62.289283 
L 674.373628 63.509333 
L 678.37332 64.864944 
L 682.373011 67.421239 
L 682.373011 64.129041 
L 682.373011 64.129041 
L 678.37332 61.901965 
L 674.373628 60.294598 
L 670.502959 58.919621 
L 666.503267 51.773615 
L 662.632597 35.603113 
L 658.632906 58.745328 
L 655.020281 62.405478 
L 651.020589 61.146696 
L 647.020898 51.095809 
L 643.150228 48.365222 
L 639.150537 58.919621 
L 635.279867 65.930067 
L 631.280175 44.66634 
L 627.280484 38.837213 
L 623.409814 30.083839 
L 619.410123 38.198139 
L 615.539453 65.174798 
L 611.539762 73.017975 
L 607.798114 76.639393 
L 603.798423 87.232525 
L 599.798731 79.46681 
L 595.928062 74.160562 
L 591.92837 96.276386 
L 588.057701 85.257206 
L 584.058009 82.274862 
L 580.058317 99.316828 
L 576.187648 88.162087 
L 572.187956 85.528328 
L 568.317287 81.945642 
L 564.317595 93.487701 
L 560.70497 99.820341 
L 556.705279 106.733957 
L 552.705587 94.184872 
L 548.834917 95.753508 
L 544.835226 105.901224 
L 540.964556 96.063362 
L 536.964865 92.945457 
L 532.965173 101.969953 
L 529.094504 104.506882 
L 525.094812 106.288542 
L 521.224142 100.459415 
L 517.224451 111.730352 
L 513.611826 111.343034 
L 509.612134 120.406262 
L 505.612443 110.084253 
L 501.741773 110.219814 
L 497.742081 119.321773 
L 493.871412 113.221524 
L 489.87172 111.904644 
L 485.872029 115.313038 
L 482.001359 116.416892 
L 478.001668 115.448599 
L 474.130998 111.904644 
L 470.131306 125.751242 
L 466.518682 130.805735 
L 462.51899 135.434178 
L 458.519298 130.553978 
L 454.648629 134.194762 
L 450.648937 136.286276 
L 446.778268 133.749347 
L 442.778576 131.367345 
L 438.778884 135.259885 
L 434.908215 136.983447 
L 430.908523 135.240519 
L 427.037854 136.944716 
L 423.038162 140.740426 
L 419.296515 144.768528 
L 415.296823 148.719165 
L 411.297132 144.632966 
L 407.426462 147.227993 
L 403.426771 152.16629 
L 399.556101 152.127559 
L 395.55641 145.175211 
L 391.556718 151.101167 
L 387.686048 152.321217 
L 383.686357 152.863462 
L 379.815687 152.108193 
L 375.815996 158.034149 
L 372.203371 160.532347 
L 368.203679 163.437227 
L 364.203988 159.796443 
L 360.333318 160.60981 
L 356.333626 162.314007 
L 352.462957 160.532347 
L 348.463265 159.254199 
L 344.463574 162.701324 
L 340.592904 160.358054 
L 336.593213 159.118638 
L 332.722543 156.407416 
L 328.722851 159.71898 
L 325.110227 160.706639 
L 321.110535 166.342108 
L 317.110843 162.95308 
L 313.240174 163.708349 
L 309.240482 167.813914 
L 305.369813 168.820939 
L 301.370121 166.61323 
L 297.370429 170.951185 
L 293.49976 169.363184 
L 289.500068 169.692404 
L 285.629399 171.280405 
L 281.629707 172.016308 
L 278.017082 173.449383 
L 274.017391 175.870116 
L 270.017699 174.320847 
L 266.14703 175.211677 
L 262.147338 176.915873 
L 258.276669 176.218702 
L 254.276977 177.283825 
L 250.277285 178.561973 
L 246.406616 178.852461 
L 242.406924 179.743291 
L 238.536255 179.568998 
L 234.536563 180.111242 
L 230.794916 180.789048 
L 226.795224 181.447487 
L 222.795532 181.679878 
L 218.924863 181.002072 
L 214.925171 181.873536 
L 211.054502 181.563683 
L 207.05481 182.435147 
L 203.055119 182.51261 
L 199.184449 182.318952 
L 195.184757 182.28022 
L 191.314088 181.699244 
L 187.314396 183.093586 
L 183.701772 183.616465 
L 179.70208 183.713294 
L 175.702388 183.384074 
L 171.831719 183.73266 
L 167.832027 184.023148 
L 163.961358 183.771392 
L 159.961666 184.158709 
L 155.961974 184.023148 
L 152.091305 184.429831 
L 148.091613 184.158709 
L 144.220944 184.003782 
L 140.221252 184.139343 
L 136.608627 184.681588 
L 132.608936 184.681588 
L 128.609244 184.410466 
L 124.738575 184.681588 
L 120.738883 185.030173 
L 116.868213 184.972076 
L 112.868522 185.165735 
L 108.86883 185.107637 
L 104.998161 185.127003 
L 100.998469 185.127003 
L 97.1278 185.262564 
L 93.128108 185.204466 
L 89.515483 185.243198 
L 85.515791 185.28193 
L 81.5161 185.340027 
L 77.64543 185.359393 
L 73.645739 185.301296 
z
" clip-path="url(#pbb765c732b)" style="fill: #d62728"/>
   </g>
   <g id="matplotlib.axis_1">
    <g id="xtick_1">
     <g id="line2d_1">
      <defs>
       <path id="m70e0b7ee07" d="M 0 0 
L 0 3.5 
" style="stroke: #000000; stroke-width: 0.8"/>
      </defs>
      <g>
       <use xlink:href="#m70e0b7ee07" x="54.034347" y="185.398125" style="stroke: #000000; stroke-width: 0.8"/>
      </g>
     </g>
     <g id="text_1">
      <!-- 2008 -->
      <g transform="translate(41.309347 199.996563)scale(0.1 -0.1)">
       <defs>
        <path id="DejaVuSans-32" d="M 1228 531 
L 3431 531 
L 3431 0 
L 469 0 
L 469 531 
Q 828 903 1448 1529 
Q 2069 2156 2228 2338 
Q 2531 2678 2651 2914 
Q 2772 3150 2772 3378 
Q 2772 3750 2511 3984 
Q 2250 4219 1831 4219 
Q 1534 4219 1204 4116 
Q 875 4013 500 3803 
L 500 4441 
Q 881 4594 1212 4672 
Q 1544 4750 1819 4750 
Q 2544 4750 2975 4387 
Q 3406 4025 3406 3419 
Q 3406 3131 3298 2873 
Q 3191 2616 2906 2266 
Q 2828 2175 2409 1742 
Q 1991 1309 1228 531 
z
" transform="scale(0.015625)"/>
        <path id="DejaVuSans-30" d="M 2034 4250 
Q 1547 4250 1301 3770 
Q 1056 3291 1056 2328 
Q 1056 1369 1301 889 
Q 1547 409 2034 409 
Q 2525 409 2770 889 
Q 3016 1369 3016 2328 
Q 3016 3291 2770 3770 
Q 2525 4250 2034 4250 
z
M 2034 4750 
Q 2819 4750 3233 4129 
Q 3647 3509 3647 2328 
Q 3647 1150 3233 529 
Q 2819 -91 2034 -91 
Q 1250 -91 836 529 
Q 422 1150 422 2328 
Q 422 3509 836 4129 
Q 1250 4750 2034 4750 
z
" transform="scale(0.015625)"/>
        <path id="DejaVuSans-38" d="M 2034 2216 
Q 1584 2216 1326 1975 
Q 1069 1734 1069 1313 
Q 1069 891 1326 650 
Q 1584 409 2034 409 
Q 2484 409 2743 651 
Q 3003 894 3003 1313 
Q 3003 1734 2745 1975 
Q 2488 2216 2034 2216 
z
M 1403 2484 
Q 997 2584 770 2862 
Q 544 3141 544 3541 
Q 544 4100 942 4425 
Q 1341 4750 2034 4750 
Q 2731 4750 3128 4425 
Q 3525 4100 3525 3541 
Q 3525 3141 3298 2862 
Q 3072 2584 2669 2484 
Q 3125 2378 3379 2068 
Q 3634 1759 3634 1313 
Q 3634 634 3220 271 
Q 2806 -91 2034 -91 
Q 1263 -91 848 271 
Q 434 634 434 1313 
Q 434 1759 690 2068 
Q 947 2378 1403 2484 
z
M 1172 3481 
Q 1172 3119 1398 2916 
Q 1625 2713 2034 2713 
Q 2441 2713 2670 2916 
Q 2900 3119 2900 3481 
Q 2900 3844 2670 4047 
Q 2441 4250 2034 4250 
Q 1625 4250 1398 4047 
Q 1172 3844 1172 3481 
z
" transform="scale(0.015625)"/>
       </defs>
       <use xlink:href="#DejaVuSans-32"/>
       <use xlink:href="#DejaVuSans-30" x="63.623047"/>
       <use xlink:href="#DejaVuSans-30" x="127.246094"/>
       <use xlink:href="#DejaVuSans-38" x="190.869141"/>
      </g>
     </g>
    </g>
    <g id="xtick_2">
     <g id="line2d_2">
      <g>
       <use xlink:href="#m70e0b7ee07" x="183.05666" y="185.398125" style="stroke: #000000; stroke-width: 0.8"/>
      </g>
     </g>
     <g id="text_2">
      <!-- 2011 -->
      <g transform="translate(170.33166 199.996563)scale(0.1 -0.1)">
       <defs>
        <path id="DejaVuSans-31" d="M 794 531 
L 1825 531 
L 1825 4091 
L 703 3866 
L 703 4441 
L 1819 4666 
L 2450 4666 
L 2450 531 
L 3481 531 
L 3481 0 
L 794 0 
L 794 531 
z
" transform="scale(0.015625)"/>
       </defs>
       <use xlink:href="#DejaVuSans-32"/>
       <use xlink:href="#DejaVuSans-30" x="63.623047"/>
       <use xlink:href="#DejaVuSans-31" x="127.246094"/>
       <use xlink:href="#DejaVuSans-31" x="190.869141"/>
      </g>
     </g>
    </g>
    <g id="xtick_3">
     <g id="line2d_3">
      <g>
       <use xlink:href="#m70e0b7ee07" x="312.078973" y="185.398125" style="stroke: #000000; stroke-width: 0.8"/>
      </g>
     </g>
     <g id="text_3">
      <!-- 2013 -->
      <g transform="translate(299.353973 199.996563)scale(0.1 -0.1)">
       <defs>
        <path id="DejaVuSans-33" d="M 2597 2516 
Q 3050 2419 3304 2112 
Q 3559 1806 3559 1356 
Q 3559 666 3084 287 
Q 2609 -91 1734 -91 
Q 1441 -91 1130 -33 
Q 819 25 488 141 
L 488 750 
Q 750 597 1062 519 
Q 1375 441 1716 441 
Q 2309 441 2620 675 
Q 2931 909 2931 1356 
Q 2931 1769 2642 2001 
Q 2353 2234 1838 2234 
L 1294 2234 
L 1294 2753 
L 1863 2753 
Q 2328 2753 2575 2939 
Q 2822 3125 2822 3475 
Q 2822 3834 2567 4026 
Q 2313 4219 1838 4219 
Q 1578 4219 1281 4162 
Q 984 4106 628 3988 
L 628 4550 
Q 988 4650 1302 4700 
Q 1616 4750 1894 4750 
Q 2613 4750 3031 4423 
Q 3450 4097 3450 3541 
Q 3450 3153 3228 2886 
Q 3006 2619 2597 2516 
z
" transform="scale(0.015625)"/>
       </defs>
       <use xlink:href="#DejaVuSans-32"/>
       <use xlink:href="#DejaVuSans-30" x="63.623047"/>
       <use xlink:href="#DejaVuSans-31" x="127.246094"/>
       <use xlink:href="#DejaVuSans-33" x="190.869141"/>
      </g>
     </g>
    </g>
    <g id="xtick_4">
     <g id="line2d_4">
      <g>
       <use xlink:href="#m70e0b7ee07" x="441.101286" y="185.398125" style="stroke: #000000; stroke-width: 0.8"/>
      </g>
     </g>
     <g id="text_4">
      <!-- 2016 -->
      <g transform="translate(428.376286 199.996563)scale(0.1 -0.1)">
       <defs>
        <path id="DejaVuSans-36" d="M 2113 2584 
Q 1688 2584 1439 2293 
Q 1191 2003 1191 1497 
Q 1191 994 1439 701 
Q 1688 409 2113 409 
Q 2538 409 2786 701 
Q 3034 994 3034 1497 
Q 3034 2003 2786 2293 
Q 2538 2584 2113 2584 
z
M 3366 4563 
L 3366 3988 
Q 3128 4100 2886 4159 
Q 2644 4219 2406 4219 
Q 1781 4219 1451 3797 
Q 1122 3375 1075 2522 
Q 1259 2794 1537 2939 
Q 1816 3084 2150 3084 
Q 2853 3084 3261 2657 
Q 3669 2231 3669 1497 
Q 3669 778 3244 343 
Q 2819 -91 2113 -91 
Q 1303 -91 875 529 
Q 447 1150 447 2328 
Q 447 3434 972 4092 
Q 1497 4750 2381 4750 
Q 2619 4750 2861 4703 
Q 3103 4656 3366 4563 
z
" transform="scale(0.015625)"/>
       </defs>
       <use xlink:href="#DejaVuSans-32"/>
       <use xlink:href="#DejaVuSans-30" x="63.623047"/>
       <use xlink:href="#DejaVuSans-31" x="127.246094"/>
       <use xlink:href="#DejaVuSans-36" x="190.869141"/>
      </g>
     </g>
    </g>
    <g id="xtick_5">
     <g id="line2d_5">
      <g>
       <use xlink:href="#m70e0b7ee07" x="570.123599" y="185.398125" style="stroke: #000000; stroke-width: 0.8"/>
      </g>
     </g>
     <g id="text_5">
      <!-- 2019 -->
      <g transform="translate(557.398599 199.996563)scale(0.1 -0.1)">
       <defs>
        <path id="DejaVuSans-39" d="M 703 97 
L 703 672 
Q 941 559 1184 500 
Q 1428 441 1663 441 
Q 2288 441 2617 861 
Q 2947 1281 2994 2138 
Q 2813 1869 2534 1725 
Q 2256 1581 1919 1581 
Q 1219 1581 811 2004 
Q 403 2428 403 3163 
Q 403 3881 828 4315 
Q 1253 4750 1959 4750 
Q 2769 4750 3195 4129 
Q 3622 3509 3622 2328 
Q 3622 1225 3098 567 
Q 2575 -91 1691 -91 
Q 1453 -91 1209 -44 
Q 966 3 703 97 
z
M 1959 2075 
Q 2384 2075 2632 2365 
Q 2881 2656 2881 3163 
Q 2881 3666 2632 3958 
Q 2384 4250 1959 4250 
Q 1534 4250 1286 3958 
Q 1038 3666 1038 3163 
Q 1038 2656 1286 2365 
Q 1534 2075 1959 2075 
z
" transform="scale(0.015625)"/>
       </defs>
       <use xlink:href="#DejaVuSans-32"/>
       <use xlink:href="#DejaVuSans-30" x="63.623047"/>
       <use xlink:href="#DejaVuSans-31" x="127.246094"/>
       <use xlink:href="#DejaVuSans-39" x="190.869141"/>
      </g>
     </g>
    </g>
    <g id="xtick_6">
     <g id="line2d_6">
      <g>
       <use xlink:href="#m70e0b7ee07" x="699.145912" y="185.398125" style="stroke: #000000; stroke-width: 0.8"/>
      </g>
     </g>
     <g id="text_6">
      <!-- 2022 -->
      <g transform="translate(686.420912 199.996563)scale(0.1 -0.1)">
       <use xlink:href="#DejaVuSans-32"/>
       <use xlink:href="#DejaVuSans-30" x="63.623047"/>
       <use xlink:href="#DejaVuSans-32" x="127.246094"/>
       <use xlink:href="#DejaVuSans-32" x="190.869141"/>
      </g>
     </g>
    </g>
   </g>
   <g id="matplotlib.axis_2">
    <g id="ytick_1">
     <g id="line2d_7">
      <defs>
       <path id="m88f4e7818d" d="M 0 0 
L -3.5 0 
" style="stroke: #000000; stroke-width: 0.8"/>
      </defs>
      <g>
       <use xlink:href="#m88f4e7818d" x="43.209375" y="185.398125" style="stroke: #000000; stroke-width: 0.8"/>
      </g>
     </g>
     <g id="text_7">
      <!-- 0 -->
      <g transform="translate(29.846875 189.197344)scale(0.1 -0.1)">
       <use xlink:href="#DejaVuSans-30"/>
      </g>
     </g>
    </g>
    <g id="ytick_2">
     <g id="line2d_8">
      <g>
       <use xlink:href="#m88f4e7818d" x="43.209375" y="146.666383" style="stroke: #000000; stroke-width: 0.8"/>
      </g>
     </g>
     <g id="text_8">
      <!-- 2 k -->
      <g transform="translate(20.878125 150.465602)scale(0.1 -0.1)">
       <defs>
        <path id="DejaVuSans-20" transform="scale(0.015625)"/>
        <path id="DejaVuSans-6b" d="M 581 4863 
L 1159 4863 
L 1159 1991 
L 2875 3500 
L 3609 3500 
L 1753 1863 
L 3688 0 
L 2938 0 
L 1159 1709 
L 1159 0 
L 581 0 
L 581 4863 
z
" transform="scale(0.015625)"/>
       </defs>
       <use xlink:href="#DejaVuSans-32"/>
       <use xlink:href="#DejaVuSans-20" x="63.623047"/>
       <use xlink:href="#DejaVuSans-6b" x="95.410156"/>
      </g>
     </g>
    </g>
    <g id="ytick_3">
     <g id="line2d_9">
      <g>
       <use xlink:href="#m88f4e7818d" x="43.209375" y="107.934641" style="stroke: #000000; stroke-width: 0.8"/>
      </g>
     </g>
     <g id="text_9">
      <!-- 4 k -->
      <g transform="translate(20.878125 111.73386)scale(0.1 -0.1)">
       <defs>
        <path id="DejaVuSans-34" d="M 2419 4116 
L 825 1625 
L 2419 1625 
L 2419 4116 
z
M 2253 4666 
L 3047 4666 
L 3047 1625 
L 3713 1625 
L 3713 1100 
L 3047 1100 
L 3047 0 
L 2419 0 
L 2419 1100 
L 313 1100 
L 313 1709 
L 2253 4666 
z
" transform="scale(0.015625)"/>
       </defs>
       <use xlink:href="#DejaVuSans-34"/>
       <use xlink:href="#DejaVuSans-20" x="63.623047"/>
       <use xlink:href="#DejaVuSans-6b" x="95.410156"/>
      </g>
     </g>
    </g>
    <g id="ytick_4">
     <g id="line2d_10">
      <g>
       <use xlink:href="#m88f4e7818d" x="43.209375" y="69.202899" style="stroke: #000000; stroke-width: 0.8"/>
      </g>
     </g>
     <g id="text_10">
      <!-- 6 k -->
      <g transform="translate(20.878125 73.002118)scale(0.1 -0.1)">
       <use xlink:href="#DejaVuSans-36"/>
       <use xlink:href="#DejaVuSans-20" x="63.623047"/>
       <use xlink:href="#DejaVuSans-6b" x="95.410156"/>
      </g>
     </g>
    </g>
    <g id="ytick_5">
     <g id="line2d_11">
      <g>
       <use xlink:href="#m88f4e7818d" x="43.209375" y="30.471157" style="stroke: #000000; stroke-width: 0.8"/>
      </g>
     </g>
     <g id="text_11">
      <!-- 8 k -->
      <g transform="translate(20.878125 34.270375)scale(0.1 -0.1)">
       <use xlink:href="#DejaVuSans-38"/>
       <use xlink:href="#DejaVuSans-20" x="63.623047"/>
       <use xlink:href="#DejaVuSans-6b" x="95.410156"/>
      </g>
     </g>
    </g>
    <g id="text_12">
     <!-- tagged questions -->
     <g transform="translate(14.798438 147.276875)rotate(-90)scale(0.1 -0.1)">
      <defs>
       <path id="DejaVuSans-74" d="M 1172 4494 
L 1172 3500 
L 2356 3500 
L 2356 3053 
L 1172 3053 
L 1172 1153 
Q 1172 725 1289 603 
Q 1406 481 1766 481 
L 2356 481 
L 2356 0 
L 1766 0 
Q 1100 0 847 248 
Q 594 497 594 1153 
L 594 3053 
L 172 3053 
L 172 3500 
L 594 3500 
L 594 4494 
L 1172 4494 
z
" transform="scale(0.015625)"/>
       <path id="DejaVuSans-61" d="M 2194 1759 
Q 1497 1759 1228 1600 
Q 959 1441 959 1056 
Q 959 750 1161 570 
Q 1363 391 1709 391 
Q 2188 391 2477 730 
Q 2766 1069 2766 1631 
L 2766 1759 
L 2194 1759 
z
M 3341 1997 
L 3341 0 
L 2766 0 
L 2766 531 
Q 2569 213 2275 61 
Q 1981 -91 1556 -91 
Q 1019 -91 701 211 
Q 384 513 384 1019 
Q 384 1609 779 1909 
Q 1175 2209 1959 2209 
L 2766 2209 
L 2766 2266 
Q 2766 2663 2505 2880 
Q 2244 3097 1772 3097 
Q 1472 3097 1187 3025 
Q 903 2953 641 2809 
L 641 3341 
Q 956 3463 1253 3523 
Q 1550 3584 1831 3584 
Q 2591 3584 2966 3190 
Q 3341 2797 3341 1997 
z
" transform="scale(0.015625)"/>
       <path id="DejaVuSans-67" d="M 2906 1791 
Q 2906 2416 2648 2759 
Q 2391 3103 1925 3103 
Q 1463 3103 1205 2759 
Q 947 2416 947 1791 
Q 947 1169 1205 825 
Q 1463 481 1925 481 
Q 2391 481 2648 825 
Q 2906 1169 2906 1791 
z
M 3481 434 
Q 3481 -459 3084 -895 
Q 2688 -1331 1869 -1331 
Q 1566 -1331 1297 -1286 
Q 1028 -1241 775 -1147 
L 775 -588 
Q 1028 -725 1275 -790 
Q 1522 -856 1778 -856 
Q 2344 -856 2625 -561 
Q 2906 -266 2906 331 
L 2906 616 
Q 2728 306 2450 153 
Q 2172 0 1784 0 
Q 1141 0 747 490 
Q 353 981 353 1791 
Q 353 2603 747 3093 
Q 1141 3584 1784 3584 
Q 2172 3584 2450 3431 
Q 2728 3278 2906 2969 
L 2906 3500 
L 3481 3500 
L 3481 434 
z
" transform="scale(0.015625)"/>
       <path id="DejaVuSans-65" d="M 3597 1894 
L 3597 1613 
L 953 1613 
Q 991 1019 1311 708 
Q 1631 397 2203 397 
Q 2534 397 2845 478 
Q 3156 559 3463 722 
L 3463 178 
Q 3153 47 2828 -22 
Q 2503 -91 2169 -91 
Q 1331 -91 842 396 
Q 353 884 353 1716 
Q 353 2575 817 3079 
Q 1281 3584 2069 3584 
Q 2775 3584 3186 3129 
Q 3597 2675 3597 1894 
z
M 3022 2063 
Q 3016 2534 2758 2815 
Q 2500 3097 2075 3097 
Q 1594 3097 1305 2825 
Q 1016 2553 972 2059 
L 3022 2063 
z
" transform="scale(0.015625)"/>
       <path id="DejaVuSans-64" d="M 2906 2969 
L 2906 4863 
L 3481 4863 
L 3481 0 
L 2906 0 
L 2906 525 
Q 2725 213 2448 61 
Q 2172 -91 1784 -91 
Q 1150 -91 751 415 
Q 353 922 353 1747 
Q 353 2572 751 3078 
Q 1150 3584 1784 3584 
Q 2172 3584 2448 3432 
Q 2725 3281 2906 2969 
z
M 947 1747 
Q 947 1113 1208 752 
Q 1469 391 1925 391 
Q 2381 391 2643 752 
Q 2906 1113 2906 1747 
Q 2906 2381 2643 2742 
Q 2381 3103 1925 3103 
Q 1469 3103 1208 2742 
Q 947 2381 947 1747 
z
" transform="scale(0.015625)"/>
       <path id="DejaVuSans-71" d="M 947 1747 
Q 947 1113 1208 752 
Q 1469 391 1925 391 
Q 2381 391 2643 752 
Q 2906 1113 2906 1747 
Q 2906 2381 2643 2742 
Q 2381 3103 1925 3103 
Q 1469 3103 1208 2742 
Q 947 2381 947 1747 
z
M 2906 525 
Q 2725 213 2448 61 
Q 2172 -91 1784 -91 
Q 1150 -91 751 415 
Q 353 922 353 1747 
Q 353 2572 751 3078 
Q 1150 3584 1784 3584 
Q 2172 3584 2448 3432 
Q 2725 3281 2906 2969 
L 2906 3500 
L 3481 3500 
L 3481 -1331 
L 2906 -1331 
L 2906 525 
z
" transform="scale(0.015625)"/>
       <path id="DejaVuSans-75" d="M 544 1381 
L 544 3500 
L 1119 3500 
L 1119 1403 
Q 1119 906 1312 657 
Q 1506 409 1894 409 
Q 2359 409 2629 706 
Q 2900 1003 2900 1516 
L 2900 3500 
L 3475 3500 
L 3475 0 
L 2900 0 
L 2900 538 
Q 2691 219 2414 64 
Q 2138 -91 1772 -91 
Q 1169 -91 856 284 
Q 544 659 544 1381 
z
M 1991 3584 
L 1991 3584 
z
" transform="scale(0.015625)"/>
       <path id="DejaVuSans-73" d="M 2834 3397 
L 2834 2853 
Q 2591 2978 2328 3040 
Q 2066 3103 1784 3103 
Q 1356 3103 1142 2972 
Q 928 2841 928 2578 
Q 928 2378 1081 2264 
Q 1234 2150 1697 2047 
L 1894 2003 
Q 2506 1872 2764 1633 
Q 3022 1394 3022 966 
Q 3022 478 2636 193 
Q 2250 -91 1575 -91 
Q 1294 -91 989 -36 
Q 684 19 347 128 
L 347 722 
Q 666 556 975 473 
Q 1284 391 1588 391 
Q 1994 391 2212 530 
Q 2431 669 2431 922 
Q 2431 1156 2273 1281 
Q 2116 1406 1581 1522 
L 1381 1569 
Q 847 1681 609 1914 
Q 372 2147 372 2553 
Q 372 3047 722 3315 
Q 1072 3584 1716 3584 
Q 2034 3584 2315 3537 
Q 2597 3491 2834 3397 
z
" transform="scale(0.015625)"/>
       <path id="DejaVuSans-69" d="M 603 3500 
L 1178 3500 
L 1178 0 
L 603 0 
L 603 3500 
z
M 603 4863 
L 1178 4863 
L 1178 4134 
L 603 4134 
L 603 4863 
z
" transform="scale(0.015625)"/>
       <path id="DejaVuSans-6f" d="M 1959 3097 
Q 1497 3097 1228 2736 
Q 959 2375 959 1747 
Q 959 1119 1226 758 
Q 1494 397 1959 397 
Q 2419 397 2687 759 
Q 2956 1122 2956 1747 
Q 2956 2369 2687 2733 
Q 2419 3097 1959 3097 
z
M 1959 3584 
Q 2709 3584 3137 3096 
Q 3566 2609 3566 1747 
Q 3566 888 3137 398 
Q 2709 -91 1959 -91 
Q 1206 -91 779 398 
Q 353 888 353 1747 
Q 353 2609 779 3096 
Q 1206 3584 1959 3584 
z
" transform="scale(0.015625)"/>
       <path id="DejaVuSans-6e" d="M 3513 2113 
L 3513 0 
L 2938 0 
L 2938 2094 
Q 2938 2591 2744 2837 
Q 2550 3084 2163 3084 
Q 1697 3084 1428 2787 
Q 1159 2491 1159 1978 
L 1159 0 
L 581 0 
L 581 3500 
L 1159 3500 
L 1159 2956 
Q 1366 3272 1645 3428 
Q 1925 3584 2291 3584 
Q 2894 3584 3203 3211 
Q 3513 2838 3513 2113 
z
" transform="scale(0.015625)"/>
      </defs>
      <use xlink:href="#DejaVuSans-74"/>
      <use xlink:href="#DejaVuSans-61" x="39.208984"/>
      <use xlink:href="#DejaVuSans-67" x="100.488281"/>
      <use xlink:href="#DejaVuSans-67" x="163.964844"/>
      <use xlink:href="#DejaVuSans-65" x="227.441406"/>
      <use xlink:href="#DejaVuSans-64" x="288.964844"/>
      <use xlink:href="#DejaVuSans-20" x="352.441406"/>
      <use xlink:href="#DejaVuSans-71" x="384.228516"/>
      <use xlink:href="#DejaVuSans-75" x="447.705078"/>
      <use xlink:href="#DejaVuSans-65" x="511.083984"/>
      <use xlink:href="#DejaVuSans-73" x="572.607422"/>
      <use xlink:href="#DejaVuSans-74" x="624.707031"/>
      <use xlink:href="#DejaVuSans-69" x="663.916016"/>
      <use xlink:href="#DejaVuSans-6f" x="691.699219"/>
      <use xlink:href="#DejaVuSans-6e" x="752.880859"/>
      <use xlink:href="#DejaVuSans-73" x="816.259766"/>
     </g>
    </g>
   </g>
   <g id="patch_3">
    <path d="M 43.209375 185.398125 
L 43.209375 22.318125 
" style="fill: none; stroke: #000000; stroke-width: 0.8; stroke-linejoin: miter; stroke-linecap: square"/>
   </g>
   <g id="patch_4">
    <path d="M 43.209375 185.398125 
L 712.809375 185.398125 
" style="fill: none; stroke: #000000; stroke-width: 0.8; stroke-linejoin: miter; stroke-linecap: square"/>
   </g>
   <g id="text_13">
    <!--  pandas: 4,204 -->
    <g transform="translate(682.373011 147.731244)scale(0.1 -0.1)">
     <defs>
      <path id="DejaVuSans-70" d="M 1159 525 
L 1159 -1331 
L 581 -1331 
L 581 3500 
L 1159 3500 
L 1159 2969 
Q 1341 3281 1617 3432 
Q 1894 3584 2278 3584 
Q 2916 3584 3314 3078 
Q 3713 2572 3713 1747 
Q 3713 922 3314 415 
Q 2916 -91 2278 -91 
Q 1894 -91 1617 61 
Q 1341 213 1159 525 
z
M 3116 1747 
Q 3116 2381 2855 2742 
Q 2594 3103 2138 3103 
Q 1681 3103 1420 2742 
Q 1159 2381 1159 1747 
Q 1159 1113 1420 752 
Q 1681 391 2138 391 
Q 2594 391 2855 752 
Q 3116 1113 3116 1747 
z
" transform="scale(0.015625)"/>
      <path id="DejaVuSans-3a" d="M 750 794 
L 1409 794 
L 1409 0 
L 750 0 
L 750 794 
z
M 750 3309 
L 1409 3309 
L 1409 2516 
L 750 2516 
L 750 3309 
z
" transform="scale(0.015625)"/>
      <path id="DejaVuSans-2c" d="M 750 794 
L 1409 794 
L 1409 256 
L 897 -744 
L 494 -744 
L 750 256 
L 750 794 
z
" transform="scale(0.015625)"/>
     </defs>
     <use xlink:href="#DejaVuSans-20"/>
     <use xlink:href="#DejaVuSans-70" x="31.787109"/>
     <use xlink:href="#DejaVuSans-61" x="95.263672"/>
     <use xlink:href="#DejaVuSans-6e" x="156.542969"/>
     <use xlink:href="#DejaVuSans-64" x="219.921875"/>
     <use xlink:href="#DejaVuSans-61" x="283.398438"/>
     <use xlink:href="#DejaVuSans-73" x="344.677734"/>
     <use xlink:href="#DejaVuSans-3a" x="396.777344"/>
     <use xlink:href="#DejaVuSans-20" x="430.46875"/>
     <use xlink:href="#DejaVuSans-34" x="462.255859"/>
     <use xlink:href="#DejaVuSans-2c" x="525.878906"/>
     <use xlink:href="#DejaVuSans-32" x="557.666016"/>
     <use xlink:href="#DejaVuSans-30" x="621.289062"/>
     <use xlink:href="#DejaVuSans-34" x="684.912109"/>
    </g>
   </g>
   <g id="text_14">
    <!--  numpy: 1,256 -->
    <g transform="translate(682.373011 96.702174)scale(0.1 -0.1)">
     <defs>
      <path id="DejaVuSans-6d" d="M 3328 2828 
Q 3544 3216 3844 3400 
Q 4144 3584 4550 3584 
Q 5097 3584 5394 3201 
Q 5691 2819 5691 2113 
L 5691 0 
L 5113 0 
L 5113 2094 
Q 5113 2597 4934 2840 
Q 4756 3084 4391 3084 
Q 3944 3084 3684 2787 
Q 3425 2491 3425 1978 
L 3425 0 
L 2847 0 
L 2847 2094 
Q 2847 2600 2669 2842 
Q 2491 3084 2119 3084 
Q 1678 3084 1418 2786 
Q 1159 2488 1159 1978 
L 1159 0 
L 581 0 
L 581 3500 
L 1159 3500 
L 1159 2956 
Q 1356 3278 1631 3431 
Q 1906 3584 2284 3584 
Q 2666 3584 2933 3390 
Q 3200 3197 3328 2828 
z
" transform="scale(0.015625)"/>
      <path id="DejaVuSans-79" d="M 2059 -325 
Q 1816 -950 1584 -1140 
Q 1353 -1331 966 -1331 
L 506 -1331 
L 506 -850 
L 844 -850 
Q 1081 -850 1212 -737 
Q 1344 -625 1503 -206 
L 1606 56 
L 191 3500 
L 800 3500 
L 1894 763 
L 2988 3500 
L 3597 3500 
L 2059 -325 
z
" transform="scale(0.015625)"/>
      <path id="DejaVuSans-35" d="M 691 4666 
L 3169 4666 
L 3169 4134 
L 1269 4134 
L 1269 2991 
Q 1406 3038 1543 3061 
Q 1681 3084 1819 3084 
Q 2600 3084 3056 2656 
Q 3513 2228 3513 1497 
Q 3513 744 3044 326 
Q 2575 -91 1722 -91 
Q 1428 -91 1123 -41 
Q 819 9 494 109 
L 494 744 
Q 775 591 1075 516 
Q 1375 441 1709 441 
Q 2250 441 2565 725 
Q 2881 1009 2881 1497 
Q 2881 1984 2565 2268 
Q 2250 2553 1709 2553 
Q 1456 2553 1204 2497 
Q 953 2441 691 2322 
L 691 4666 
z
" transform="scale(0.015625)"/>
     </defs>
     <use xlink:href="#DejaVuSans-20"/>
     <use xlink:href="#DejaVuSans-6e" x="31.787109"/>
     <use xlink:href="#DejaVuSans-75" x="95.166016"/>
     <use xlink:href="#DejaVuSans-6d" x="158.544922"/>
     <use xlink:href="#DejaVuSans-70" x="255.957031"/>
     <use xlink:href="#DejaVuSans-79" x="319.433594"/>
     <use xlink:href="#DejaVuSans-3a" x="371.363281"/>
     <use xlink:href="#DejaVuSans-20" x="405.054688"/>
     <use xlink:href="#DejaVuSans-31" x="436.841797"/>
     <use xlink:href="#DejaVuSans-2c" x="500.464844"/>
     <use xlink:href="#DejaVuSans-32" x="532.251953"/>
     <use xlink:href="#DejaVuSans-35" x="595.875"/>
     <use xlink:href="#DejaVuSans-36" x="659.498047"/>
    </g>
   </g>
   <g id="text_15">
    <!--  matplotlib: 869 -->
    <g transform="translate(682.373011 78.139987)scale(0.1 -0.1)">
     <defs>
      <path id="DejaVuSans-6c" d="M 603 4863 
L 1178 4863 
L 1178 0 
L 603 0 
L 603 4863 
z
" transform="scale(0.015625)"/>
      <path id="DejaVuSans-62" d="M 3116 1747 
Q 3116 2381 2855 2742 
Q 2594 3103 2138 3103 
Q 1681 3103 1420 2742 
Q 1159 2381 1159 1747 
Q 1159 1113 1420 752 
Q 1681 391 2138 391 
Q 2594 391 2855 752 
Q 3116 1113 3116 1747 
z
M 1159 2969 
Q 1341 3281 1617 3432 
Q 1894 3584 2278 3584 
Q 2916 3584 3314 3078 
Q 3713 2572 3713 1747 
Q 3713 922 3314 415 
Q 2916 -91 2278 -91 
Q 1894 -91 1617 61 
Q 1341 213 1159 525 
L 1159 0 
L 581 0 
L 581 4863 
L 1159 4863 
L 1159 2969 
z
" transform="scale(0.015625)"/>
     </defs>
     <use xlink:href="#DejaVuSans-20"/>
     <use xlink:href="#DejaVuSans-6d" x="31.787109"/>
     <use xlink:href="#DejaVuSans-61" x="129.199219"/>
     <use xlink:href="#DejaVuSans-74" x="190.478516"/>
     <use xlink:href="#DejaVuSans-70" x="229.6875"/>
     <use xlink:href="#DejaVuSans-6c" x="293.164062"/>
     <use xlink:href="#DejaVuSans-6f" x="320.947266"/>
     <use xlink:href="#DejaVuSans-74" x="382.128906"/>
     <use xlink:href="#DejaVuSans-6c" x="421.337891"/>
     <use xlink:href="#DejaVuSans-69" x="449.121094"/>
     <use xlink:href="#DejaVuSans-62" x="476.904297"/>
     <use xlink:href="#DejaVuSans-3a" x="540.380859"/>
     <use xlink:href="#DejaVuSans-20" x="574.072266"/>
     <use xlink:href="#DejaVuSans-38" x="605.859375"/>
     <use xlink:href="#DejaVuSans-36" x="669.482422"/>
     <use xlink:href="#DejaVuSans-39" x="733.105469"/>
    </g>
   </g>
   <g id="patch_5">
    <path d="M 699.18088 59.535775 
Q 691.714591 62.307388 685.296449 64.68991 
" style="fill: none; stroke: #000000; stroke-linecap: round"/>
    <path d="M 689.742433 65.172842 
L 685.296449 64.68991 
L 688.350385 61.422882 
" style="fill: none; stroke: #000000; stroke-linecap: round"/>
   </g>
   <g id="text_16">
    <!--  seaborn: 172 -->
    <g transform="translate(684.953458 54.761507)scale(0.1 -0.1)">
     <defs>
      <path id="DejaVuSans-72" d="M 2631 2963 
Q 2534 3019 2420 3045 
Q 2306 3072 2169 3072 
Q 1681 3072 1420 2755 
Q 1159 2438 1159 1844 
L 1159 0 
L 581 0 
L 581 3500 
L 1159 3500 
L 1159 2956 
Q 1341 3275 1631 3429 
Q 1922 3584 2338 3584 
Q 2397 3584 2469 3576 
Q 2541 3569 2628 3553 
L 2631 2963 
z
" transform="scale(0.015625)"/>
      <path id="DejaVuSans-37" d="M 525 4666 
L 3525 4666 
L 3525 4397 
L 1831 0 
L 1172 0 
L 2766 4134 
L 525 4134 
L 525 4666 
z
" transform="scale(0.015625)"/>
     </defs>
     <use xlink:href="#DejaVuSans-20"/>
     <use xlink:href="#DejaVuSans-73" x="31.787109"/>
     <use xlink:href="#DejaVuSans-65" x="83.886719"/>
     <use xlink:href="#DejaVuSans-61" x="145.410156"/>
     <use xlink:href="#DejaVuSans-62" x="206.689453"/>
     <use xlink:href="#DejaVuSans-6f" x="270.166016"/>
     <use xlink:href="#DejaVuSans-72" x="331.347656"/>
     <use xlink:href="#DejaVuSans-6e" x="370.710938"/>
     <use xlink:href="#DejaVuSans-3a" x="434.089844"/>
     <use xlink:href="#DejaVuSans-20" x="467.78125"/>
     <use xlink:href="#DejaVuSans-31" x="499.568359"/>
     <use xlink:href="#DejaVuSans-37" x="563.191406"/>
     <use xlink:href="#DejaVuSans-32" x="626.814453"/>
    </g>
   </g>
   <g id="text_17">
    <!-- Stack Overflow Questions per Month -->
    <g transform="translate(268.245938 16.318125)scale(0.12 -0.12)">
     <defs>
      <path id="DejaVuSans-53" d="M 3425 4513 
L 3425 3897 
Q 3066 4069 2747 4153 
Q 2428 4238 2131 4238 
Q 1616 4238 1336 4038 
Q 1056 3838 1056 3469 
Q 1056 3159 1242 3001 
Q 1428 2844 1947 2747 
L 2328 2669 
Q 3034 2534 3370 2195 
Q 3706 1856 3706 1288 
Q 3706 609 3251 259 
Q 2797 -91 1919 -91 
Q 1588 -91 1214 -16 
Q 841 59 441 206 
L 441 856 
Q 825 641 1194 531 
Q 1563 422 1919 422 
Q 2459 422 2753 634 
Q 3047 847 3047 1241 
Q 3047 1584 2836 1778 
Q 2625 1972 2144 2069 
L 1759 2144 
Q 1053 2284 737 2584 
Q 422 2884 422 3419 
Q 422 4038 858 4394 
Q 1294 4750 2059 4750 
Q 2388 4750 2728 4690 
Q 3069 4631 3425 4513 
z
" transform="scale(0.015625)"/>
      <path id="DejaVuSans-63" d="M 3122 3366 
L 3122 2828 
Q 2878 2963 2633 3030 
Q 2388 3097 2138 3097 
Q 1578 3097 1268 2742 
Q 959 2388 959 1747 
Q 959 1106 1268 751 
Q 1578 397 2138 397 
Q 2388 397 2633 464 
Q 2878 531 3122 666 
L 3122 134 
Q 2881 22 2623 -34 
Q 2366 -91 2075 -91 
Q 1284 -91 818 406 
Q 353 903 353 1747 
Q 353 2603 823 3093 
Q 1294 3584 2113 3584 
Q 2378 3584 2631 3529 
Q 2884 3475 3122 3366 
z
" transform="scale(0.015625)"/>
      <path id="DejaVuSans-4f" d="M 2522 4238 
Q 1834 4238 1429 3725 
Q 1025 3213 1025 2328 
Q 1025 1447 1429 934 
Q 1834 422 2522 422 
Q 3209 422 3611 934 
Q 4013 1447 4013 2328 
Q 4013 3213 3611 3725 
Q 3209 4238 2522 4238 
z
M 2522 4750 
Q 3503 4750 4090 4092 
Q 4678 3434 4678 2328 
Q 4678 1225 4090 567 
Q 3503 -91 2522 -91 
Q 1538 -91 948 565 
Q 359 1222 359 2328 
Q 359 3434 948 4092 
Q 1538 4750 2522 4750 
z
" transform="scale(0.015625)"/>
      <path id="DejaVuSans-76" d="M 191 3500 
L 800 3500 
L 1894 563 
L 2988 3500 
L 3597 3500 
L 2284 0 
L 1503 0 
L 191 3500 
z
" transform="scale(0.015625)"/>
      <path id="DejaVuSans-66" d="M 2375 4863 
L 2375 4384 
L 1825 4384 
Q 1516 4384 1395 4259 
Q 1275 4134 1275 3809 
L 1275 3500 
L 2222 3500 
L 2222 3053 
L 1275 3053 
L 1275 0 
L 697 0 
L 697 3053 
L 147 3053 
L 147 3500 
L 697 3500 
L 697 3744 
Q 697 4328 969 4595 
Q 1241 4863 1831 4863 
L 2375 4863 
z
" transform="scale(0.015625)"/>
      <path id="DejaVuSans-77" d="M 269 3500 
L 844 3500 
L 1563 769 
L 2278 3500 
L 2956 3500 
L 3675 769 
L 4391 3500 
L 4966 3500 
L 4050 0 
L 3372 0 
L 2619 2869 
L 1863 0 
L 1184 0 
L 269 3500 
z
" transform="scale(0.015625)"/>
      <path id="DejaVuSans-51" d="M 2522 4238 
Q 1834 4238 1429 3725 
Q 1025 3213 1025 2328 
Q 1025 1447 1429 934 
Q 1834 422 2522 422 
Q 3209 422 3611 934 
Q 4013 1447 4013 2328 
Q 4013 3213 3611 3725 
Q 3209 4238 2522 4238 
z
M 3406 84 
L 4238 -825 
L 3475 -825 
L 2784 -78 
Q 2681 -84 2626 -87 
Q 2572 -91 2522 -91 
Q 1538 -91 948 567 
Q 359 1225 359 2328 
Q 359 3434 948 4092 
Q 1538 4750 2522 4750 
Q 3503 4750 4090 4092 
Q 4678 3434 4678 2328 
Q 4678 1516 4351 937 
Q 4025 359 3406 84 
z
" transform="scale(0.015625)"/>
      <path id="DejaVuSans-4d" d="M 628 4666 
L 1569 4666 
L 2759 1491 
L 3956 4666 
L 4897 4666 
L 4897 0 
L 4281 0 
L 4281 4097 
L 3078 897 
L 2444 897 
L 1241 4097 
L 1241 0 
L 628 0 
L 628 4666 
z
" transform="scale(0.015625)"/>
      <path id="DejaVuSans-68" d="M 3513 2113 
L 3513 0 
L 2938 0 
L 2938 2094 
Q 2938 2591 2744 2837 
Q 2550 3084 2163 3084 
Q 1697 3084 1428 2787 
Q 1159 2491 1159 1978 
L 1159 0 
L 581 0 
L 581 4863 
L 1159 4863 
L 1159 2956 
Q 1366 3272 1645 3428 
Q 1925 3584 2291 3584 
Q 2894 3584 3203 3211 
Q 3513 2838 3513 2113 
z
" transform="scale(0.015625)"/>
     </defs>
     <use xlink:href="#DejaVuSans-53"/>
     <use xlink:href="#DejaVuSans-74" x="63.476562"/>
     <use xlink:href="#DejaVuSans-61" x="102.685547"/>
     <use xlink:href="#DejaVuSans-63" x="163.964844"/>
     <use xlink:href="#DejaVuSans-6b" x="218.945312"/>
     <use xlink:href="#DejaVuSans-20" x="276.855469"/>
     <use xlink:href="#DejaVuSans-4f" x="308.642578"/>
     <use xlink:href="#DejaVuSans-76" x="387.353516"/>
     <use xlink:href="#DejaVuSans-65" x="446.533203"/>
     <use xlink:href="#DejaVuSans-72" x="508.056641"/>
     <use xlink:href="#DejaVuSans-66" x="549.169922"/>
     <use xlink:href="#DejaVuSans-6c" x="584.375"/>
     <use xlink:href="#DejaVuSans-6f" x="612.158203"/>
     <use xlink:href="#DejaVuSans-77" x="673.339844"/>
     <use xlink:href="#DejaVuSans-20" x="755.126953"/>
     <use xlink:href="#DejaVuSans-51" x="786.914062"/>
     <use xlink:href="#DejaVuSans-75" x="865.625"/>
     <use xlink:href="#DejaVuSans-65" x="929.003906"/>
     <use xlink:href="#DejaVuSans-73" x="990.527344"/>
     <use xlink:href="#DejaVuSans-74" x="1042.626953"/>
     <use xlink:href="#DejaVuSans-69" x="1081.835938"/>
     <use xlink:href="#DejaVuSans-6f" x="1109.619141"/>
     <use xlink:href="#DejaVuSans-6e" x="1170.800781"/>
     <use xlink:href="#DejaVuSans-73" x="1234.179688"/>
     <use xlink:href="#DejaVuSans-20" x="1286.279297"/>
     <use xlink:href="#DejaVuSans-70" x="1318.066406"/>
     <use xlink:href="#DejaVuSans-65" x="1381.542969"/>
     <use xlink:href="#DejaVuSans-72" x="1443.066406"/>
     <use xlink:href="#DejaVuSans-20" x="1484.179688"/>
     <use xlink:href="#DejaVuSans-4d" x="1515.966797"/>
     <use xlink:href="#DejaVuSans-6f" x="1602.246094"/>
     <use xlink:href="#DejaVuSans-6e" x="1663.427734"/>
     <use xlink:href="#DejaVuSans-74" x="1726.806641"/>
     <use xlink:href="#DejaVuSans-68" x="1766.015625"/>
    </g>
   </g>
  </g>
  <g id="axes_2">
   <g id="patch_6">
    <path d="M 108.009375 82.798125 
L 280.809375 82.798125 
L 280.809375 39.598125 
L 108.009375 39.598125 
z
" style="fill: #ffffff"/>
   </g>
   <g id="patch_7">
    <path d="M 108.009375 41.561761 
L 272.580804 41.561761 
L 272.580804 49.829704 
L 108.009375 49.829704 
z
" clip-path="url(#p64bbf2379b)" style="fill: #1f77b4"/>
   </g>
   <g id="patch_8">
    <path d="M 108.009375 51.89669 
L 179.995591 51.89669 
L 179.995591 60.164632 
L 108.009375 60.164632 
z
" clip-path="url(#p64bbf2379b)" style="fill: #ff7f0e"/>
   </g>
   <g id="patch_9">
    <path d="M 108.009375 62.231618 
L 154.471249 62.231618 
L 154.471249 70.49956 
L 108.009375 70.49956 
z
" clip-path="url(#p64bbf2379b)" style="fill: #2ca02c"/>
   </g>
   <g id="patch_10">
    <path d="M 108.009375 72.566546 
L 113.672711 72.566546 
L 113.672711 80.834489 
L 108.009375 80.834489 
z
" clip-path="url(#p64bbf2379b)" style="fill: #d62728"/>
   </g>
   <g id="matplotlib.axis_3">
    <g id="xtick_7">
     <g id="line2d_12">
      <g>
       <use xlink:href="#m70e0b7ee07" x="108.009375" y="82.798125" style="stroke: #000000; stroke-width: 0.8"/>
      </g>
     </g>
     <g id="text_18">
      <!-- 0 -->
      <g transform="translate(104.828125 97.396563)scale(0.1 -0.1)">
       <use xlink:href="#DejaVuSans-30"/>
      </g>
     </g>
    </g>
    <g id="xtick_8">
     <g id="line2d_13">
      <g>
       <use xlink:href="#m70e0b7ee07" x="146.566947" y="82.798125" style="stroke: #000000; stroke-width: 0.8"/>
      </g>
     </g>
     <g id="text_19">
      <!-- 50 k -->
      <g transform="translate(135.720072 97.396563)scale(0.1 -0.1)">
       <use xlink:href="#DejaVuSans-35"/>
       <use xlink:href="#DejaVuSans-30" x="63.623047"/>
       <use xlink:href="#DejaVuSans-20" x="127.246094"/>
       <use xlink:href="#DejaVuSans-6b" x="159.033203"/>
      </g>
     </g>
    </g>
    <g id="xtick_9">
     <g id="line2d_14">
      <g>
       <use xlink:href="#m70e0b7ee07" x="185.124519" y="82.798125" style="stroke: #000000; stroke-width: 0.8"/>
      </g>
     </g>
     <g id="text_20">
      <!-- 100 k -->
      <g transform="translate(171.096394 97.396563)scale(0.1 -0.1)">
       <use xlink:href="#DejaVuSans-31"/>
       <use xlink:href="#DejaVuSans-30" x="63.623047"/>
       <use xlink:href="#DejaVuSans-30" x="127.246094"/>
       <use xlink:href="#DejaVuSans-20" x="190.869141"/>
       <use xlink:href="#DejaVuSans-6b" x="222.65625"/>
      </g>
     </g>
    </g>
    <g id="xtick_10">
     <g id="line2d_15">
      <g>
       <use xlink:href="#m70e0b7ee07" x="223.682091" y="82.798125" style="stroke: #000000; stroke-width: 0.8"/>
      </g>
     </g>
     <g id="text_21">
      <!-- 150 k -->
      <g transform="translate(209.653966 97.396563)scale(0.1 -0.1)">
       <use xlink:href="#DejaVuSans-31"/>
       <use xlink:href="#DejaVuSans-35" x="63.623047"/>
       <use xlink:href="#DejaVuSans-30" x="127.246094"/>
       <use xlink:href="#DejaVuSans-20" x="190.869141"/>
       <use xlink:href="#DejaVuSans-6b" x="222.65625"/>
      </g>
     </g>
    </g>
    <g id="xtick_11">
     <g id="line2d_16">
      <g>
       <use xlink:href="#m70e0b7ee07" x="262.239663" y="82.798125" style="stroke: #000000; stroke-width: 0.8"/>
      </g>
     </g>
     <g id="text_22">
      <!-- 200 k -->
      <g transform="translate(248.211538 97.396563)scale(0.1 -0.1)">
       <use xlink:href="#DejaVuSans-32"/>
       <use xlink:href="#DejaVuSans-30" x="63.623047"/>
       <use xlink:href="#DejaVuSans-30" x="127.246094"/>
       <use xlink:href="#DejaVuSans-20" x="190.869141"/>
       <use xlink:href="#DejaVuSans-6b" x="222.65625"/>
      </g>
     </g>
    </g>
    <g id="text_23">
     <!-- total questions -->
     <g transform="translate(157.18125 111.074688)scale(0.1 -0.1)">
      <use xlink:href="#DejaVuSans-74"/>
      <use xlink:href="#DejaVuSans-6f" x="39.208984"/>
      <use xlink:href="#DejaVuSans-74" x="100.390625"/>
      <use xlink:href="#DejaVuSans-61" x="139.599609"/>
      <use xlink:href="#DejaVuSans-6c" x="200.878906"/>
      <use xlink:href="#DejaVuSans-20" x="228.662109"/>
      <use xlink:href="#DejaVuSans-71" x="260.449219"/>
      <use xlink:href="#DejaVuSans-75" x="323.925781"/>
      <use xlink:href="#DejaVuSans-65" x="387.304688"/>
      <use xlink:href="#DejaVuSans-73" x="448.828125"/>
      <use xlink:href="#DejaVuSans-74" x="500.927734"/>
      <use xlink:href="#DejaVuSans-69" x="540.136719"/>
      <use xlink:href="#DejaVuSans-6f" x="567.919922"/>
      <use xlink:href="#DejaVuSans-6e" x="629.101562"/>
      <use xlink:href="#DejaVuSans-73" x="692.480469"/>
     </g>
    </g>
   </g>
   <g id="matplotlib.axis_4">
    <g id="ytick_6">
     <g id="line2d_17">
      <g>
       <use xlink:href="#m88f4e7818d" x="108.009375" y="45.695733" style="stroke: #000000; stroke-width: 0.8"/>
      </g>
     </g>
     <g id="text_24">
      <!-- pandas -->
      <g transform="translate(64.509375 49.494951)scale(0.1 -0.1)">
       <use xlink:href="#DejaVuSans-70"/>
       <use xlink:href="#DejaVuSans-61" x="63.476562"/>
       <use xlink:href="#DejaVuSans-6e" x="124.755859"/>
       <use xlink:href="#DejaVuSans-64" x="188.134766"/>
       <use xlink:href="#DejaVuSans-61" x="251.611328"/>
       <use xlink:href="#DejaVuSans-73" x="312.890625"/>
      </g>
     </g>
    </g>
    <g id="ytick_7">
     <g id="line2d_18">
      <g>
       <use xlink:href="#m88f4e7818d" x="108.009375" y="56.030661" style="stroke: #000000; stroke-width: 0.8"/>
      </g>
     </g>
     <g id="text_25">
      <!-- numpy -->
      <g transform="translate(66.326563 59.82988)scale(0.1 -0.1)">
       <use xlink:href="#DejaVuSans-6e"/>
       <use xlink:href="#DejaVuSans-75" x="63.378906"/>
       <use xlink:href="#DejaVuSans-6d" x="126.757812"/>
       <use xlink:href="#DejaVuSans-70" x="224.169922"/>
       <use xlink:href="#DejaVuSans-79" x="287.646484"/>
      </g>
     </g>
    </g>
    <g id="ytick_8">
     <g id="line2d_19">
      <g>
       <use xlink:href="#m88f4e7818d" x="108.009375" y="66.365589" style="stroke: #000000; stroke-width: 0.8"/>
      </g>
     </g>
     <g id="text_26">
      <!-- matplotlib -->
      <g transform="translate(50.15 70.164808)scale(0.1 -0.1)">
       <use xlink:href="#DejaVuSans-6d"/>
       <use xlink:href="#DejaVuSans-61" x="97.412109"/>
       <use xlink:href="#DejaVuSans-74" x="158.691406"/>
       <use xlink:href="#DejaVuSans-70" x="197.900391"/>
       <use xlink:href="#DejaVuSans-6c" x="261.376953"/>
       <use xlink:href="#DejaVuSans-6f" x="289.160156"/>
       <use xlink:href="#DejaVuSans-74" x="350.341797"/>
       <use xlink:href="#DejaVuSans-6c" x="389.550781"/>
       <use xlink:href="#DejaVuSans-69" x="417.333984"/>
       <use xlink:href="#DejaVuSans-62" x="445.117188"/>
      </g>
     </g>
    </g>
    <g id="ytick_9">
     <g id="line2d_20">
      <g>
       <use xlink:href="#m88f4e7818d" x="108.009375" y="76.700517" style="stroke: #000000; stroke-width: 0.8"/>
      </g>
     </g>
     <g id="text_27">
      <!-- seaborn -->
      <g transform="translate(60.778125 80.499736)scale(0.1 -0.1)">
       <use xlink:href="#DejaVuSans-73"/>
       <use xlink:href="#DejaVuSans-65" x="52.099609"/>
       <use xlink:href="#DejaVuSans-61" x="113.623047"/>
       <use xlink:href="#DejaVuSans-62" x="174.902344"/>
       <use xlink:href="#DejaVuSans-6f" x="238.378906"/>
       <use xlink:href="#DejaVuSans-72" x="299.560547"/>
       <use xlink:href="#DejaVuSans-6e" x="338.923828"/>
      </g>
     </g>
    </g>
   </g>
   <g id="patch_11">
    <path d="M 108.009375 82.798125 
L 108.009375 39.598125 
" style="fill: none; stroke: #000000; stroke-width: 0.8; stroke-linejoin: miter; stroke-linecap: square"/>
   </g>
   <g id="patch_12">
    <path d="M 108.009375 82.798125 
L 280.809375 82.798125 
" style="fill: none; stroke: #000000; stroke-width: 0.8; stroke-linejoin: miter; stroke-linecap: square"/>
   </g>
  </g>
 </g>
 <defs>
  <clipPath id="pbb765c732b">
   <rect x="43.209375" y="22.318125" width="669.6" height="163.08"/>
  </clipPath>
  <clipPath id="p64bbf2379b">
   <rect x="108.009375" y="39.598125" width="172.8" height="43.2"/>
  </clipPath>
 </defs>
</svg>
